<?xml version="1.0" standalone="no"?><!DOCTYPE svg PUBLIC "-//W3C//DTD SVG 1.1//EN" "http://www.w3.org/Graphics/SVG/1.1/DTD/svg11.dtd"><svg class="icon" width="200px" height="200.00px" viewBox="0 0 1024 1024" version="1.1" xmlns="http://www.w3.org/2000/svg"><path fill="#333333" d="M458.453333 544.128a21.333333 21.333333 0 0 1 21.333334 21.333333v341.162667a21.333333 21.333333 0 0 1-21.333334 21.333333H117.333333a21.333333 21.333333 0 0 1-21.333333-21.333333v-341.162667a21.333333 21.333333 0 0 1 21.333333-21.333333h341.12z m448.170667 0a21.333333 21.333333 0 0 1 21.333333 21.333333v341.162667a21.333333 21.333333 0 0 1-21.333333 21.333333h-341.162667a21.333333 21.333333 0 0 1-21.333333-21.333333v-341.162667a21.333333 21.333333 0 0 1 21.333333-21.333333h341.162667z m-490.837333 64H160v255.786667h255.786667v-255.786667z m448.170666 0h-255.829333v255.786667h255.829333v-255.786667zM458.453333 96a21.333333 21.333333 0 0 1 21.333334 21.333333v341.162667a21.333333 21.333333 0 0 1-21.333334 21.333333H117.333333a21.333333 21.333333 0 0 1-21.333333-21.333333V117.333333a21.333333 21.333333 0 0 1 21.333333-21.333333h341.12z m448.170667 0a21.333333 21.333333 0 0 1 21.333333 21.333333v341.162667a21.333333 21.333333 0 0 1-21.333333 21.333333h-341.162667a21.333333 21.333333 0 0 1-21.333333-21.333333V117.333333a21.333333 21.333333 0 0 1 21.333333-21.333333h341.162667zM415.786667 160H160v255.786667h255.786667V160z m448.170666 0h-255.829333v255.786667h255.829333V160z" /></svg>