<?xml version="1.0" standalone="no"?><!DOCTYPE svg PUBLIC "-//W3C//DTD SVG 1.1//EN" "http://www.w3.org/Graphics/SVG/1.1/DTD/svg11.dtd"><svg class="icon" width="200px" height="200.00px" viewBox="0 0 1024 1024" version="1.1" xmlns="http://www.w3.org/2000/svg"><path fill="#333333" d="M496.896 859.648a21.333333 21.333333 0 0 0 27.221333 2.474667l2.986667-2.474667 332.672-332.714667a21.333333 21.333333 0 0 0 2.474667-27.221333l-2.474667-2.986667-15.061333-15.061333a21.333333 21.333333 0 0 0-27.221334-2.474667l-2.986666 2.474667-270.506667 270.549333V170.709333a21.333333 21.333333 0 0 0-21.333333-21.333333h-21.333334a21.333333 21.333333 0 0 0-21.333333 21.333333v581.546667l-270.506667-270.592a21.333333 21.333333 0 0 0-27.221333-2.474667l-2.986667 2.474667-15.061333 15.104a21.333333 21.333333 0 0 0-2.474667 27.221333l2.474667 2.944 332.672 332.714667z" /></svg>