<?xml version="1.0" standalone="no"?><!DOCTYPE svg PUBLIC "-//W3C//DTD SVG 1.1//EN" "http://www.w3.org/Graphics/SVG/1.1/DTD/svg11.dtd"><svg class="icon" width="200px" height="200.00px" viewBox="0 0 1024 1024" version="1.1" xmlns="http://www.w3.org/2000/svg"><path fill="#333333" d="M608 917.461333a21.333333 21.333333 0 0 1 21.333333 21.333334v21.333333a21.333333 21.333333 0 0 1-21.333333 21.333333h-192a21.333333 21.333333 0 0 1-21.333333-21.333333v-21.333333a21.333333 21.333333 0 0 1 21.333333-21.333334h192z m-85.333333-874.666666a21.333333 21.333333 0 0 1 21.333333 21.333333v87.04a320 320 0 0 1 288 318.421333v340.906667h21.333333a21.333333 21.333333 0 0 1 21.333334 21.333333v21.333334a21.333333 21.333333 0 0 1-21.333334 21.333333H170.666667a21.333333 21.333333 0 0 1-21.333334-21.333333v-21.333334a21.333333 21.333333 0 0 1 21.333334-21.333333h21.333333v-340.906667a320 320 0 0 1 288-318.421333v-87.04a21.333333 21.333333 0 0 1 21.333333-21.333333h21.333334zM512 213.546667a256 256 0 0 0-255.829333 246.4L256 469.589333v340.906667h512v-340.906667a256 256 0 0 0-246.4-255.829333L512 213.589333z" /></svg>