<?xml version="1.0" standalone="no"?><!DOCTYPE svg PUBLIC "-//W3C//DTD SVG 1.1//EN" "http://www.w3.org/Graphics/SVG/1.1/DTD/svg11.dtd"><svg class="icon" width="200px" height="200.00px" viewBox="0 0 1024 1024" version="1.1" xmlns="http://www.w3.org/2000/svg"><path fill="#333333" d="M608 917.461333a21.333333 21.333333 0 0 1 21.333333 21.333334v21.333333a21.333333 21.333333 0 0 1-21.333333 21.333333h-192a21.333333 21.333333 0 0 1-21.333333-21.333333v-21.333333a21.333333 21.333333 0 0 1 21.333333-21.333334h192zM126.250667 111.146667a21.333333 21.333333 0 0 1 27.178666-2.474667l2.986667 2.474667 756.437333 756.48a21.333333 21.333333 0 0 1 2.474667 27.178666l-2.474667 2.986667-15.104 15.061333a21.333333 21.333333 0 0 1-27.178666 2.474667l-2.986667-2.474667-38.4-38.4-637.184 0.042667v-1.194667H170.666667a21.333333 21.333333 0 0 1-21.333334-21.333333v-18.944a21.333333 21.333333 0 0 1 21.333334-21.333333h21.333333v-342.101334c0-65.962667 19.968-127.232 54.186667-178.176L111.104 156.416a21.333333 21.333333 0 0 1-2.474667-27.221333l2.474667-2.986667 15.104-15.061333z m129.92 348.842666L256 469.589333v340.906667h509.226667L292.48 337.706667a254.592 254.592 0 0 0-36.266667 122.24z m266.496-417.237333a21.333333 21.333333 0 0 1 21.333333 21.333333v87.082667a320 320 0 0 1 288 318.421333v256.981334l-64-64v-192.981334a256 256 0 0 0-246.4-255.829333L512 213.589333c-54.613333 0-105.173333 17.066667-146.773333 46.208L319.488 213.973333a318.336 318.336 0 0 1 160.554667-62.805333v-87.04a21.333333 21.333333 0 0 1 21.333333-21.333333h21.333333z" /></svg>