<?xml version="1.0" standalone="no"?><!DOCTYPE svg PUBLIC "-//W3C//DTD SVG 1.1//EN" "http://www.w3.org/Graphics/SVG/1.1/DTD/svg11.dtd"><svg class="icon" width="200px" height="200.00px" viewBox="0 0 1024 1024" version="1.1" xmlns="http://www.w3.org/2000/svg"><path fill="#333333" d="M682.624 554.666667a17.066667 17.066667 0 0 1 14.976 25.258666l-1.962667 2.858667-170.624 201.173333-1.962666 2.005334a17.066667 17.066667 0 0 1-21.589334 0.426666l-2.474666-2.432-170.624-201.173333a17.066667 17.066667 0 0 1 9.557333-27.733333L341.376 554.666667H682.666667z m-159.573333-316.586667l1.962666 1.962667 170.624 201.173333a17.066667 17.066667 0 0 1-13.013333 28.117333H341.333333a17.066667 17.066667 0 0 1-13.013333-28.117333l170.624-201.173333a17.066667 17.066667 0 0 1 24.064-2.005334z" /></svg>