<?xml version="1.0" standalone="no"?><!DOCTYPE svg PUBLIC "-//W3C//DTD SVG 1.1//EN" "http://www.w3.org/Graphics/SVG/1.1/DTD/svg11.dtd"><svg class="icon" width="200px" height="200.00px" viewBox="0 0 1024 1024" version="1.1" xmlns="http://www.w3.org/2000/svg"><path fill="#333333" d="M512 42.666667c259.2 0 469.333333 210.133333 469.333333 469.333333s-210.133333 469.333333-469.333333 469.333333S42.666667 771.2 42.666667 512 252.8 42.666667 512 42.666667z m0 64a405.333333 405.333333 0 1 0 0 810.666666 405.333333 405.333333 0 0 0 0-810.666666z m180.821333 201.472l3.242667 2.090666 16.853333 13.056a21.333333 21.333333 0 0 1 3.754667 29.952l-253.909333 327.168a21.333333 21.333333 0 0 1-33.706667 0l-121.728-156.928a21.333333 21.333333 0 0 1 3.797333-29.952l16.853334-13.056a21.333333 21.333333 0 0 1 29.909333 3.797334l88.064 113.450666 220.16-283.733333a21.333333 21.333333 0 0 1 26.709333-5.845333z" /></svg>