<?xml version="1.0" standalone="no"?><!DOCTYPE svg PUBLIC "-//W3C//DTD SVG 1.1//EN" "http://www.w3.org/Graphics/SVG/1.1/DTD/svg11.dtd"><svg class="icon" width="200px" height="200.00px" viewBox="0 0 1024 1024" version="1.1" xmlns="http://www.w3.org/2000/svg"><path fill="#333333" d="M512 42.666667c259.2 0 469.333333 210.133333 469.333333 469.333333s-210.133333 469.333333-469.333333 469.333333S42.666667 771.2 42.666667 512 252.8 42.666667 512 42.666667z m180.821333 265.472a21.333333 21.333333 0 0 0-26.709333 5.845333l-220.16 283.733333-88.064-113.493333a21.333333 21.333333 0 0 0-29.909333-3.754667l-16.853334 13.056a21.333333 21.333333 0 0 0-3.84 29.952l121.770667 156.928a21.333333 21.333333 0 0 0 33.706667 0l253.909333-327.168a21.333333 21.333333 0 0 0-3.754667-29.952l-16.853333-13.056z" /></svg>