<?xml version="1.0" standalone="no"?><!DOCTYPE svg PUBLIC "-//W3C//DTD SVG 1.1//EN" "http://www.w3.org/Graphics/SVG/1.1/DTD/svg11.dtd"><svg class="icon" width="200px" height="200.00px" viewBox="0 0 1024 1024" version="1.1" xmlns="http://www.w3.org/2000/svg"><path fill="#333333" d="M685.312 445.568l-253.909333 327.168a21.333333 21.333333 0 0 1-33.706667 0l-121.728-156.928a21.333333 21.333333 0 0 1 3.797333-29.909333l16.853334-13.098667a21.333333 21.333333 0 0 1 29.909333 3.797333l88.064 113.493334 220.16-283.733334a21.333333 21.333333 0 0 1 29.952-3.797333l16.853333 13.098667a21.333333 21.333333 0 0 1 3.754667 29.909333z m158.72-204.757333l-412.586667 531.84a21.333333 21.333333 0 0 1-33.706666-0.128l-245.717334-320.085334a21.333333 21.333333 0 0 1 3.84-29.866666l16.853334-13.013334a21.333333 21.333333 0 0 1 30.037333 3.84l211.84 276.650667 378.88-488.448a21.333333 21.333333 0 0 1 29.952-3.797333l16.853333 13.098666a21.333333 21.333333 0 0 1 3.754667 29.909334z" /></svg>