<?xml version="1.0" standalone="no"?><!DOCTYPE svg PUBLIC "-//W3C//DTD SVG 1.1//EN" "http://www.w3.org/Graphics/SVG/1.1/DTD/svg11.dtd"><svg class="icon" width="200px" height="200.00px" viewBox="0 0 1024 1024" version="1.1" xmlns="http://www.w3.org/2000/svg"><path fill="#333333" d="M512 42.666667c259.2 0 469.333333 210.133333 469.333333 469.333333s-210.133333 469.333333-469.333333 469.333333S42.666667 771.2 42.666667 512 252.8 42.666667 512 42.666667z m0 64a405.333333 405.333333 0 1 0 0 810.666666 405.333333 405.333333 0 0 0 0-810.666666z m-21.333333 149.504a21.333333 21.333333 0 0 1 21.333333 21.333333l-0.042667 234.453333 170.794667 0.042667a21.333333 21.333333 0 0 1 21.333333 21.333333v21.333334a21.333333 21.333333 0 0 1-21.333333 21.333333H469.333333a21.333333 21.333333 0 0 1-21.333333-21.333333V277.504a21.333333 21.333333 0 0 1 21.333333-21.333333h21.333334z" /></svg>