<?xml version="1.0" standalone="no"?><!DOCTYPE svg PUBLIC "-//W3C//DTD SVG 1.1//EN" "http://www.w3.org/Graphics/SVG/1.1/DTD/svg11.dtd"><svg class="icon" width="200px" height="200.00px" viewBox="0 0 1024 1024" version="1.1" xmlns="http://www.w3.org/2000/svg"><path fill="#333333" d="M217.856 172.586667L512 466.730667l294.144-294.144a21.333333 21.333333 0 0 1 30.165333 0l15.104 15.104a21.333333 21.333333 0 0 1 0 30.165333L557.269333 512l294.144 294.144a21.333333 21.333333 0 0 1 0 30.165333l-15.104 15.104a21.333333 21.333333 0 0 1-30.165333 0L512 557.269333l-294.144 294.144a21.333333 21.333333 0 0 1-30.165333 0l-15.104-15.104a21.333333 21.333333 0 0 1 0-30.165333L466.730667 512 172.586667 217.856a21.333333 21.333333 0 0 1 0-30.165333l15.104-15.104a21.333333 21.333333 0 0 1 30.165333 0z" /></svg>