<?xml version="1.0" standalone="no"?><!DOCTYPE svg PUBLIC "-//W3C//DTD SVG 1.1//EN" "http://www.w3.org/Graphics/SVG/1.1/DTD/svg11.dtd"><svg class="icon" width="200px" height="200.00px" viewBox="0 0 1024 1024" version="1.1" xmlns="http://www.w3.org/2000/svg"><path fill="#333333" d="M512 42.666667c259.2 0 469.333333 210.133333 469.333333 469.333333s-210.133333 469.333333-469.333333 469.333333S42.666667 771.2 42.666667 512 252.8 42.666667 512 42.666667z m140.288 307.925333a17.066667 17.066667 0 0 0-24.149333 0L512 466.730667 395.861333 350.592a17.066667 17.066667 0 0 0-24.149333 0l-21.12 21.12a17.066667 17.066667 0 0 0 0 24.149333L466.730667 512l-116.138667 116.138667a17.066667 17.066667 0 0 0 0 24.149333l21.12 21.12a17.066667 17.066667 0 0 0 24.149333 0L512 557.226667l116.138667 116.181333a17.066667 17.066667 0 0 0 24.149333 0l21.12-21.12a17.066667 17.066667 0 0 0 0-24.149333L557.226667 512l116.181333-116.138667a17.066667 17.066667 0 0 0 0-24.149333z" /></svg>