<?xml version="1.0" standalone="no"?><!DOCTYPE svg PUBLIC "-//W3C//DTD SVG 1.1//EN" "http://www.w3.org/Graphics/SVG/1.1/DTD/svg11.dtd"><svg class="icon" width="200px" height="200.00px" viewBox="0 0 1024 1024" version="1.1" xmlns="http://www.w3.org/2000/svg"><path fill="#333333" d="M512 42.666667c259.2 0 469.333333 210.133333 469.333333 469.333333s-210.133333 469.333333-469.333333 469.333333S42.666667 771.2 42.666667 512 252.8 42.666667 512 42.666667z m0 64a405.333333 405.333333 0 1 0 0 810.666666 405.333333 405.333333 0 0 0 0-810.666666z m140.288 243.925333l21.12 21.12a17.066667 17.066667 0 0 1 0 24.149333L557.269333 512l116.138667 116.138667a17.066667 17.066667 0 0 1 0 24.149333l-21.12 21.12a17.066667 17.066667 0 0 1-24.149333 0L512 557.269333l-116.138667 116.138667a17.066667 17.066667 0 0 1-24.149333 0l-21.12-21.12a17.066667 17.066667 0 0 1 0-24.149333L466.730667 512 350.592 395.861333a17.066667 17.066667 0 0 1 0-24.149333l21.12-21.12a17.066667 17.066667 0 0 1 24.149333 0L512 466.730667l116.138667-116.138667a17.066667 17.066667 0 0 1 24.149333 0z" /></svg>