<?xml version="1.0" standalone="no"?><!DOCTYPE svg PUBLIC "-//W3C//DTD SVG 1.1//EN" "http://www.w3.org/Graphics/SVG/1.1/DTD/svg11.dtd"><svg class="icon" width="200px" height="200.00px" viewBox="0 0 1024 1024" version="1.1" xmlns="http://www.w3.org/2000/svg"><path d="M266.666667 481.194667a21.333333 21.333333 0 0 1 21.333333 0l186.197333 107.52a21.333333 21.333333 0 0 1 10.666667 18.474666v214.954667a21.333333 21.333333 0 0 1-10.666667 18.474667l-186.197333 107.52a21.333333 21.333333 0 0 1-21.333333 0l-186.197334-107.52a21.333333 21.333333 0 0 1-10.666666-18.474667v-214.954667a21.333333 21.333333 0 0 1 10.666666-18.474666z m469.333333 0a21.333333 21.333333 0 0 1 21.333333 0l186.197334 107.52a21.333333 21.333333 0 0 1 10.666666 18.474666v214.954667a21.333333 21.333333 0 0 1-10.666666 18.474667l-186.197334 107.52a21.333333 21.333333 0 0 1-21.333333 0l-186.197333-107.52a21.333333 21.333333 0 0 1-10.666667-18.474667v-214.954667a21.333333 21.333333 0 0 1 10.666667-18.474666zM277.333333 548.949333l-143.530666 82.858667v165.674667L277.333333 880.341333l143.488-82.816v-165.76L277.333333 548.949333z m469.333334 0l-143.530667 82.858667v165.674667l143.530667 82.858666 143.488-82.816v-165.76L746.666667 548.949333zM501.333333 65.194667a21.333333 21.333333 0 0 1 21.333334 0l186.197333 107.52a21.333333 21.333333 0 0 1 10.666667 18.474666v214.954667a21.333333 21.333333 0 0 1-10.666667 18.474667l-186.197333 107.52a21.333333 21.333333 0 0 1-21.333334 0l-186.197333-107.52a21.333333 21.333333 0 0 1-10.666667-18.474667V191.189333a21.333333 21.333333 0 0 1 10.666667-18.474666zM512 132.949333L368.469333 215.808v165.674667L512 464.341333l143.488-82.816V215.765333L512 132.949333z" /></svg>