<?xml version="1.0" standalone="no"?><!DOCTYPE svg PUBLIC "-//W3C//DTD SVG 1.1//EN" "http://www.w3.org/Graphics/SVG/1.1/DTD/svg11.dtd"><svg class="icon" width="200px" height="200.00px" viewBox="0 0 1024 1024" version="1.1" xmlns="http://www.w3.org/2000/svg"><path fill="#333333" d="M906.752 96.042667a21.333333 21.333333 0 0 1 21.333333 21.333333V746.666667a21.333333 21.333333 0 0 1-21.333333 21.333333H656.213333l-129.408 142.378667a21.333333 21.333333 0 0 1-30.122666 1.408l-1.28-1.237334L362.666667 768H117.248a21.333333 21.333333 0 0 1-21.333333-21.333333V117.376a21.333333 21.333333 0 0 1 21.333333-21.333333h789.504z m-42.666667 64H159.872V704h230.613333l120.064 128.981333 117.333334-128.981333h236.117333V160.042667zM311.893333 375.765333a56.021333 56.021333 0 1 1 0 112 56.021333 56.021333 0 0 1 0-112z m200.021334 0a56.021333 56.021333 0 1 1 0 112 56.021333 56.021333 0 0 1 0-112z m200.192 0a56.021333 56.021333 0 1 1 0 112 56.021333 56.021333 0 0 1 0-112z" /></svg>