<?xml version="1.0" standalone="no"?><!DOCTYPE svg PUBLIC "-//W3C//DTD SVG 1.1//EN" "http://www.w3.org/Graphics/SVG/1.1/DTD/svg11.dtd"><svg class="icon" width="200px" height="200.00px" viewBox="0 0 1024 1024" version="1.1" xmlns="http://www.w3.org/2000/svg"><path fill="#333333" d="M349.44 96a21.333333 21.333333 0 0 1 21.333333 21.333333l-0.085333 54.357334h282.538667V117.333333a21.333333 21.333333 0 0 1 21.333333-21.333333h21.333333a21.333333 21.333333 0 0 1 21.333334 21.333333v54.314667h189.397333a21.333333 21.333333 0 0 1 21.333333 21.333333v713.6a21.333333 21.333333 0 0 1-21.333333 21.333334H117.333333a21.333333 21.333333 0 0 1-21.333333-21.333334V193.024a21.333333 21.333333 0 0 1 21.333333-21.333333h189.312L306.773333 117.333333a21.333333 21.333333 0 0 1 21.333334-21.333333h21.333333zM863.872 426.666667H160.042667v437.290666h703.872V426.624zM349.44 682.453333a21.333333 21.333333 0 0 1 21.333333 21.333334v21.333333a21.333333 21.333333 0 0 1-21.333333 21.333333h-85.333333a21.333333 21.333333 0 0 1-21.333334-21.333333v-21.333333a21.333333 21.333333 0 0 1 21.333334-21.333334h85.333333z m205.226667 0a21.333333 21.333333 0 0 1 21.333333 21.333334v21.333333a21.333333 21.333333 0 0 1-21.333333 21.333333h-85.333334a21.333333 21.333333 0 0 1-21.333333-21.333333v-21.333333a21.333333 21.333333 0 0 1 21.333333-21.333334h85.333334z m205.226666 0a21.333333 21.333333 0 0 1 21.333334 21.333334v21.333333a21.333333 21.333333 0 0 1-21.333334 21.333333h-85.333333a21.333333 21.333333 0 0 1-21.333333-21.333333v-21.333333a21.333333 21.333333 0 0 1 21.333333-21.333334h85.333333zM349.44 544.853333a21.333333 21.333333 0 0 1 21.333333 21.333334v21.333333a21.333333 21.333333 0 0 1-21.333333 21.333333h-85.333333a21.333333 21.333333 0 0 1-21.333334-21.333333v-21.333333a21.333333 21.333333 0 0 1 21.333334-21.333334h85.333333z m205.269333 0a21.333333 21.333333 0 0 1 21.333334 21.333334v21.333333a21.333333 21.333333 0 0 1-21.333334 21.333333h-85.333333a21.333333 21.333333 0 0 1-21.333333-21.333333v-21.333333a21.333333 21.333333 0 0 1 21.333333-21.333334h85.333333z m205.226667 0a21.333333 21.333333 0 0 1 21.333333 21.333334v21.333333a21.333333 21.333333 0 0 1-21.333333 21.333333h-85.333333a21.333333 21.333333 0 0 1-21.333334-21.333333v-21.333333a21.333333 21.333333 0 0 1 21.333334-21.333334h85.333333z m104.021333-309.12H160.042667V362.666667h703.872V235.690667z" /></svg>