<?xml version="1.0" standalone="no"?><!DOCTYPE svg PUBLIC "-//W3C//DTD SVG 1.1//EN" "http://www.w3.org/Graphics/SVG/1.1/DTD/svg11.dtd"><svg class="icon" width="200px" height="200.00px" viewBox="0 0 1024 1024" version="1.1" xmlns="http://www.w3.org/2000/svg"><path fill="#333333" d="M704 96.768a21.333333 21.333333 0 0 1 21.333333 21.333333v133.077334h181.333334a21.333333 21.333333 0 0 1 21.333333 21.333333v21.333333a21.333333 21.333333 0 0 1-21.333333 21.333334h-87.850667l-23.381333 612.778666H227.541333L204.458667 315.178667H117.333333a21.333333 21.333333 0 0 1-21.333333-21.333334v-21.333333a21.333333 21.333333 0 0 1 21.333333-21.333333H298.666667v-133.12a21.333333 21.333333 0 0 1 21.333333-21.333334h384z m29.824 767.146667l20.992-548.736H268.544l20.650667 548.778666h444.629333z m-291.157333-431.872a21.333333 21.333333 0 0 1 21.333333 21.333333v271.786667a21.333333 21.333333 0 0 1-21.333333 21.333333h-21.333334a21.333333 21.333333 0 0 1-21.333333-21.333333v-271.786667a21.333333 21.333333 0 0 1 21.333333-21.333333h21.333334z m160 0a21.333333 21.333333 0 0 1 21.333333 21.333333v271.786667a21.333333 21.333333 0 0 1-21.333333 21.333333h-21.333334a21.333333 21.333333 0 0 1-21.333333-21.333333v-271.786667a21.333333 21.333333 0 0 1 21.333333-21.333333h21.333334z m58.624-271.274667h-298.666667v90.453333h298.666667v-90.453333z" /></svg>