<?xml version="1.0" standalone="no"?><!DOCTYPE svg PUBLIC "-//W3C//DTD SVG 1.1//EN" "http://www.w3.org/Graphics/SVG/1.1/DTD/svg11.dtd"><svg class="icon" width="200px" height="200.00px" viewBox="0 0 1024 1024" version="1.1" xmlns="http://www.w3.org/2000/svg"><path fill="#333333" d="M496.853333 164.224a21.333333 21.333333 0 0 1 27.221334-2.474667l2.944 2.474667 332.714666 332.672a21.333333 21.333333 0 0 1 2.432 27.221333l-2.432 2.986667-332.714666 332.672a21.333333 21.333333 0 0 1-27.221334 2.474667l-2.986666-2.474667-15.061334-15.061333a21.333333 21.333333 0 0 1-2.474666-27.221334l2.474666-2.986666 302.506667-302.506667-302.506667-302.506667a21.333333 21.333333 0 0 1-2.474666-27.221333l2.474666-2.986667 15.104-15.061333z m-317.482666 0a21.333333 21.333333 0 0 1 27.221333-2.474667l2.944 2.474667 332.714667 332.672a21.333333 21.333333 0 0 1 2.474666 27.221333l-2.474666 2.986667L209.493333 859.733333a21.333333 21.333333 0 0 1-27.221333 2.474667l-2.986667-2.474667-15.061333-15.061333a21.333333 21.333333 0 0 1-2.432-27.221333l2.432-2.986667L466.773333 512 164.266667 209.493333a21.333333 21.333333 0 0 1-2.432-27.221333l2.432-2.986667 15.104-15.061333z" /></svg>