<?xml version="1.0" standalone="no"?><!DOCTYPE svg PUBLIC "-//W3C//DTD SVG 1.1//EN" "http://www.w3.org/Graphics/SVG/1.1/DTD/svg11.dtd"><svg class="icon" width="200px" height="200.00px" viewBox="0 0 1024 1024" version="1.1" xmlns="http://www.w3.org/2000/svg"><path fill="#333333" d="M209.493333 481.706667L512 784.213333l302.506667-302.506666a21.333333 21.333333 0 0 1 30.208 0l15.061333 15.061333a21.333333 21.333333 0 0 1 0 30.165333l-332.672 332.714667a21.333333 21.333333 0 0 1-30.208 0L164.266667 526.933333a21.333333 21.333333 0 0 1 0-30.165333l15.061333-15.104a21.333333 21.333333 0 0 1 30.165333 0z m0-317.525334l302.506667 302.506667 302.506667-302.506667a21.333333 21.333333 0 0 1 30.208 0l15.061333 15.104a21.333333 21.333333 0 0 1 0 30.165334l-332.672 332.714666a21.333333 21.333333 0 0 1-30.208 0L164.266667 209.450667a21.333333 21.333333 0 0 1 0-30.165334l15.061333-15.104a21.333333 21.333333 0 0 1 30.165333 0z" /></svg>