<?xml version="1.0" standalone="no"?><!DOCTYPE svg PUBLIC "-//W3C//DTD SVG 1.1//EN" "http://www.w3.org/Graphics/SVG/1.1/DTD/svg11.dtd"><svg class="icon" width="200px" height="200.00px" viewBox="0 0 1024 1024" version="1.1" xmlns="http://www.w3.org/2000/svg"><path fill="#333333" d="M542.250667 209.493333L239.744 512l302.506667 302.506667a21.333333 21.333333 0 0 1 0 30.208l-15.104 15.061333a21.333333 21.333333 0 0 1-30.165334 0L164.266667 527.104a21.333333 21.333333 0 0 1 0-30.208l332.714666-332.672a21.333333 21.333333 0 0 1 30.165334 0l15.104 15.061333a21.333333 21.333333 0 0 1 0 30.165334z m317.44 0L557.226667 512l302.506666 302.506667a21.333333 21.333333 0 0 1 0 30.208l-15.061333 15.061333a21.333333 21.333333 0 0 1-30.165333 0l-332.714667-332.672a21.333333 21.333333 0 0 1 0-30.208L814.506667 164.266667a21.333333 21.333333 0 0 1 30.165333 0l15.104 15.061333a21.333333 21.333333 0 0 1 0 30.165333z" /></svg>