<?xml version="1.0" standalone="no"?><!DOCTYPE svg PUBLIC "-//W3C//DTD SVG 1.1//EN" "http://www.w3.org/Graphics/SVG/1.1/DTD/svg11.dtd"><svg class="icon" width="200px" height="200.00px" viewBox="0 0 1024 1024" version="1.1" xmlns="http://www.w3.org/2000/svg"><path fill="#333333" d="M512 42.666667c259.2 0 469.333333 210.133333 469.333333 469.333333s-210.133333 469.333333-469.333333 469.333333S42.666667 771.2 42.666667 512 252.8 42.666667 512 42.666667z m184.832 317.738666a21.333333 21.333333 0 0 0-24.064 3.029334l-2.602667 2.858666L512 570.197333l-158.165333-203.946666-2.602667-2.816a21.333333 21.333333 0 0 0-24.064-2.986667l-3.242667 2.048-16.853333 13.056a21.333333 21.333333 0 0 0-5.845333 26.709333l2.048 3.242667 191.872 247.338667a21.333333 21.333333 0 0 0 31.104 2.816l2.602666-2.816 191.872-247.338667a21.333333 21.333333 0 0 0-0.981333-27.306667l-2.816-2.645333-16.853333-13.056-3.242667-2.090667z" /></svg>