<?xml version="1.0" standalone="no"?><!DOCTYPE svg PUBLIC "-//W3C//DTD SVG 1.1//EN" "http://www.w3.org/Graphics/SVG/1.1/DTD/svg11.dtd"><svg class="icon" width="200px" height="200.00px" viewBox="0 0 1024 1024" version="1.1" xmlns="http://www.w3.org/2000/svg"><path fill="#333333" d="M527.104 731.306667l233.813333-233.813334a21.333333 21.333333 0 0 0 0-30.208l-15.104-15.061333a21.333333 21.333333 0 0 0-27.221333-2.474667l-2.944 2.474667-171.648 171.690667V117.12a21.333333 21.333333 0 0 0-21.333333-21.333333h-21.333334a21.333333 21.333333 0 0 0-21.333333 21.333333v506.794667l-171.648-171.690667a21.333333 21.333333 0 0 0-30.165333 0l-15.104 15.061333a21.333333 21.333333 0 0 0 0 30.165334l233.813333 233.813333a21.333333 21.333333 0 0 0 30.208 0z m379.434667 196.906666a21.333333 21.333333 0 0 0 20.992-17.493333l0.341333-3.84V645.12a21.333333 21.333333 0 0 0-17.493333-20.992l-3.84-0.341333h-21.333334a21.333333 21.333333 0 0 0-20.992 17.493333l-0.341333 3.84v219.093333H161.28V645.12a21.333333 21.333333 0 0 0-17.493333-20.992l-3.84-0.341333H117.76a21.333333 21.333333 0 0 0-20.992 17.493333l-0.341333 3.84v261.76a21.333333 21.333333 0 0 0 17.493333 20.992l3.84 0.341333h788.778667z" /></svg>