<?xml version="1.0" standalone="no"?><!DOCTYPE svg PUBLIC "-//W3C//DTD SVG 1.1//EN" "http://www.w3.org/Graphics/SVG/1.1/DTD/svg11.dtd"><svg class="icon" width="200px" height="200.00px" viewBox="0 0 1024 1024" version="1.1" xmlns="http://www.w3.org/2000/svg"><path fill="#333333" d="M526.848 100.522667l120.490667 120.448a21.333333 21.333333 0 0 1 0 30.165333l-15.104 15.104a21.333333 21.333333 0 0 1-30.165334 0l-58.282666-58.282667v272.298667h272.256L757.76 421.973333a21.333333 21.333333 0 0 1 0-30.165333l15.104-15.061333a21.333333 21.333333 0 0 1 30.165333 0l120.448 120.448a21.333333 21.333333 0 0 1 0 30.165333l-120.448 120.448a21.333333 21.333333 0 0 1-30.165333 0l-15.104-15.061333a21.333333 21.333333 0 0 1 0-30.208l58.282667-58.282667h-272.256v271.786667l58.282666-58.282667a21.333333 21.333333 0 0 1 30.165334 0l15.104 15.104a21.333333 21.333333 0 0 1 0 30.165333l-120.490667 120.448a21.333333 21.333333 0 0 1-30.165333 0l-120.448-120.448a21.333333 21.333333 0 0 1 0-30.165333l15.104-15.104a21.333333 21.333333 0 0 1 30.165333 0l58.282667 58.282667v-271.786667h-271.786667l58.24 58.282667a21.333333 21.333333 0 0 1 0 30.208l-15.104 15.061333a21.333333 21.333333 0 0 1-30.165333 0L100.522667 527.36a21.333333 21.333333 0 0 1 0-30.165333L220.970667 376.746667a21.333333 21.333333 0 0 1 30.165333 0l15.104 15.061333a21.333333 21.333333 0 0 1 0 30.165333l-58.282667 58.282667h271.786667V207.957333L421.546667 266.24a21.333333 21.333333 0 0 1-30.165334 0l-15.104-15.104a21.333333 21.333333 0 0 1 0-30.165333l120.448-120.448a21.333333 21.333333 0 0 1 30.165334 0z" /></svg>