<?xml version="1.0" standalone="no"?><!DOCTYPE svg PUBLIC "-//W3C//DTD SVG 1.1//EN" "http://www.w3.org/Graphics/SVG/1.1/DTD/svg11.dtd"><svg class="icon" width="200px" height="200.00px" viewBox="0 0 1024 1024" version="1.1" xmlns="http://www.w3.org/2000/svg"><path fill="#333333" d="M533.418667 96.554667a21.333333 21.333333 0 0 1 21.333333 21.333333v21.333333a21.333333 21.333333 0 0 1-17.493333 20.992l-3.84 0.341334-372.906667-0.042667v702.933333h702.933333V533.333333a21.333333 21.333333 0 0 1 21.333334-21.333333h21.333333a21.333333 21.333333 0 0 1 21.333333 21.333333v342.442667c0 26.752-20.309333 48.768-46.378666 51.413333l-5.290667 0.256H148.224a51.669333 51.669333 0 0 1-51.413333-46.378666l-0.256-5.290667V148.224c0-26.752 20.309333-48.768 46.378666-51.413333l5.290667-0.256h385.194667z m263.296 3.84l120.661333 120.746666a21.333333 21.333333 0 0 1 0 30.122667l-371.626667 371.669333a21.333333 21.333333 0 0 1-13.184 6.144l-132.693333 12.074667a21.333333 21.333333 0 0 1-23.210667-23.168l12.074667-132.736a21.333333 21.333333 0 0 1 6.144-13.141333l371.626667-371.669334a21.333333 21.333333 0 0 1 30.208 0zM781.653333 175.786667l-330.581333 330.581333-6.058667 66.389333 66.389334-6.058666 330.581333-330.581334L781.653333 175.786667z" /></svg>