<?xml version="1.0" standalone="no"?><!DOCTYPE svg PUBLIC "-//W3C//DTD SVG 1.1//EN" "http://www.w3.org/Graphics/SVG/1.1/DTD/svg11.dtd"><svg class="icon" width="200px" height="200.00px" viewBox="0 0 1024 1024" version="1.1" xmlns="http://www.w3.org/2000/svg"><path fill="#333333" d="M512 42.666667c259.2 0 469.333333 210.133333 469.333333 469.333333s-210.133333 469.333333-469.333333 469.333333S42.666667 771.2 42.666667 512 252.8 42.666667 512 42.666667z m0 626.474666a42.666667 42.666667 0 1 0 0 85.333334 42.666667 42.666667 0 0 0 0-85.333334z m10.666667-417.365333h-21.333334a21.333333 21.333333 0 0 0-21.333333 21.333333v311.978667a21.333333 21.333333 0 0 0 21.333333 21.333333h21.333334a21.333333 21.333333 0 0 0 21.333333-21.333333V273.066667a21.333333 21.333333 0 0 0-21.333333-21.333334z" /></svg>