<?xml version="1.0" standalone="no"?><!DOCTYPE svg PUBLIC "-//W3C//DTD SVG 1.1//EN" "http://www.w3.org/Graphics/SVG/1.1/DTD/svg11.dtd"><svg class="icon" width="200px" height="200.00px" viewBox="0 0 1024 1024" version="1.1" xmlns="http://www.w3.org/2000/svg"><path fill="#333333" d="M512 149.461333c86.613333 0 166.528 25.770667 239.914667 77.312l52.053333-52.053333a21.333333 21.333333 0 0 1 30.208 0l15.061333 15.104a21.333333 21.333333 0 0 1 0 30.165333L802.133333 267.093333c45.397333 41.088 88.021333 92.928 127.914667 155.52l12.714667 20.565334 7.765333 13.269333 19.541333 34.901333 5.717334 10.496a21.333333 21.333333 0 0 1 0 20.394667l-16.213334 29.44-13.226666 23.04-7.168 11.946667c-117.76 191.488-260.181333 287.232-427.178667 287.232-86.442667 0-166.314667-25.642667-239.616-76.970667l-52.394667 52.352a21.333333 21.333333 0 0 1-30.165333 0l-15.061333-15.061333a21.333333 21.333333 0 0 1 0-30.165334l47.36-47.36C173.653333 712.96 128.298667 656.981333 86.101333 588.8l-10.154666-17.066667-17.408-30.72-10.368-18.773333a21.333333 21.333333 0 0 1 0-20.48l19.2-34.645333 11.52-20.138667 6.4-10.581333c117.674667-191.317333 259.925333-286.933333 426.666666-286.933334z m244.906667 162.901334L318.464 750.805333c57.002667 37.546667 117.76 56.874667 182.357333 58.88l11.136 0.170667c148.992 0 277.632-91.008 387.669334-281.898667l9.002666-16-0.426666-0.768c-46.933333-84.650667-97.365333-150.698667-151.381334-198.826666zM512 213.461333c-148.992 0-277.589333 91.178667-387.626667 282.453334l-9.088 16.042666 0.426667 0.725334c47.018667 84.650667 97.536 150.613333 151.637333 198.698666l103.466667-103.466666a170.666667 170.666667 0 0 1 237.098667-237.098667l97.962666-97.92c-57.130667-37.76-117.973333-57.258667-182.741333-59.306667L512 213.504z m160.853333 241.408a170.666667 170.666667 0 0 1-218.026666 218.026667l54.272-54.272 2.901333 0.042667a106.666667 106.666667 0 0 0 106.666667-106.666667l-0.085334-2.901333 54.272-54.229334zM512 405.333333a106.666667 106.666667 0 0 0-94.592 155.989334l143.914667-143.914667A106.24 106.24 0 0 0 512 405.333333z" /></svg>