<?xml version="1.0" standalone="no"?><!DOCTYPE svg PUBLIC "-//W3C//DTD SVG 1.1//EN" "http://www.w3.org/Graphics/SVG/1.1/DTD/svg11.dtd"><svg class="icon" width="200px" height="200.00px" viewBox="0 0 1024 1024" version="1.1" xmlns="http://www.w3.org/2000/svg"><path fill="#333333" d="M512 149.461333c162.688 0 302.08 91.050667 418.048 273.109334l12.714667 20.565333 12.16 20.949333 15.146666 27.221334 5.717334 10.496a21.333333 21.333333 0 0 1 0 20.394666l-16.213334 29.44-13.226666 23.04-7.168 11.946667c-117.76 191.488-260.181333 287.232-427.178667 287.232-166.4 0-308.309333-95.018667-425.813333-285.056l-10.24-17.066667-17.365334-30.72-10.368-18.773333a21.333333 21.333333 0 0 1 0-20.48l19.2-34.645333 11.52-20.138667 6.4-10.581333c117.674667-191.317333 259.925333-286.933333 426.666667-286.933334z m0 64c-148.992 0-277.589333 91.178667-387.626667 282.453334l-9.088 16.042666 0.426667 0.725334c109.184 196.394667 236.970667 292.437333 385.152 297.002666l11.136 0.170667c148.992 0 277.632-91.008 387.669333-281.898667l9.002667-16-0.426667-0.768c-109.184-196.778667-236.970667-292.992-385.109333-297.557333L512 213.461333zM512 341.333333a170.666667 170.666667 0 1 1 0 341.333334 170.666667 170.666667 0 0 1 0-341.333334z m0 64a106.666667 106.666667 0 1 0 0 213.333334 106.666667 106.666667 0 0 0 0-213.333334z" /></svg>