<?xml version="1.0" standalone="no"?><!DOCTYPE svg PUBLIC "-//W3C//DTD SVG 1.1//EN" "http://www.w3.org/Graphics/SVG/1.1/DTD/svg11.dtd"><svg t="1630483513212" class="icon" viewBox="0 0 1024 1024" version="1.1" xmlns="http://www.w3.org/2000/svg" p-id="1642" width="200" height="200" xmlns:xlink="http://www.w3.org/1999/xlink"><defs><style type="text/css"></style></defs><path d="M853.248 981.333333a21.333333 21.333333 0 0 0 21.333333-21.333333v-896a21.333333 21.333333 0 0 0-21.333333-21.333333H170.752a21.333333 21.333333 0 0 0-21.333333 21.333333v896a21.333333 21.333333 0 0 0 21.333333 21.333333h682.496z m-42.709333-63.957333H213.418667V106.666667h597.12v810.709333zM682.666667 405.333333a21.333333 21.333333 0 0 0 21.333333-21.333333v-21.333333A21.333333 21.333333 0 0 0 682.666667 341.333333H341.333333a21.333333 21.333333 0 0 0-21.333333 21.333334V384a21.333333 21.333333 0 0 0 21.333333 21.333333h341.333334z m0 138.666667a21.333333 21.333333 0 0 0 21.333333-21.333333v-21.333334a21.333333 21.333333 0 0 0-21.333333-21.333333H341.333333a21.333333 21.333333 0 0 0-21.333333 21.333333v21.333334a21.333333 21.333333 0 0 0 21.333333 21.333333h341.333334zM512 682.666667a21.333333 21.333333 0 0 0 21.333333-21.333334V640a21.333333 21.333333 0 0 0-21.333333-21.333333H341.333333a21.333333 21.333333 0 0 0-21.333333 21.333333v21.333333a21.333333 21.333333 0 0 0 21.333333 21.333334h170.666667z" p-id="1643" fill="#333333"></path></svg>