<?xml version="1.0" standalone="no"?><!DOCTYPE svg PUBLIC "-//W3C//DTD SVG 1.1//EN" "http://www.w3.org/Graphics/SVG/1.1/DTD/svg11.dtd"><svg class="icon" width="200px" height="200.00px" viewBox="0 0 1024 1024" version="1.1" xmlns="http://www.w3.org/2000/svg"><path fill="#333333" d="M903.082667 96.384a21.333333 21.333333 0 0 1 18.176 32.512l-2.304 3.072-271.658667 301.738667 0.042667 472.490666a21.333333 21.333333 0 0 1-21.333334 21.333334h-21.333333a21.248 21.248 0 0 1-11.818667-3.584l-2.730666-1.365334-198.613334-114.645333a21.418667 21.418667 0 0 1-3.413333-2.432 21.205333 21.205333 0 0 1-11.861333-19.072v-354.56L105.173333 132.053333a21.333333 21.333333 0 0 1-5.162666-10.410666l-0.384-3.882667a21.333333 21.333333 0 0 1 17.493333-20.992l3.84-0.341333h782.08z m-95.744 64H216.618667l217.002666 239.658667 1.28 1.578666a21.248 21.248 0 0 1 5.333334 14.122667v346.368l143.061333 82.645333 0.042667-427.434666c0-6.272 2.688-11.904 6.997333-15.786667l1.194667-1.493333 215.808-239.658667z" /></svg>