<?xml version="1.0" standalone="no"?><!DOCTYPE svg PUBLIC "-//W3C//DTD SVG 1.1//EN" "http://www.w3.org/Graphics/SVG/1.1/DTD/svg11.dtd"><svg class="icon" width="200px" height="200.00px" viewBox="0 0 1024 1024" version="1.1" xmlns="http://www.w3.org/2000/svg"><path fill="#333333" d="M434.986667 149.418667a21.333333 21.333333 0 0 1 17.536 9.216L551.68 302.08h354.816a21.333333 21.333333 0 0 1 21.333333 21.333333v529.834667a21.333333 21.333333 0 0 1-21.333333 21.333333H117.418667a21.333333 21.333333 0 0 1-21.333334-21.333333V170.752a21.333333 21.333333 0 0 1 21.333334-21.333333h317.568z m-22.4 64H160v597.12h703.744V366.08h-345.642667L412.586667 213.418667z m110.08 230.4a21.333333 21.333333 0 0 1 21.333333 21.333333v66.133333h66.133333a21.333333 21.333333 0 0 1 21.333334 21.333334v21.333333a21.333333 21.333333 0 0 1-21.333334 21.333333h-66.133333v66.133334a21.333333 21.333333 0 0 1-21.333333 21.333333h-21.333334a21.333333 21.333333 0 0 1-21.333333-21.333333v-66.133334H413.866667a21.333333 21.333333 0 0 1-21.333334-21.333333v-21.333333a21.333333 21.333333 0 0 1 21.333334-21.333334h66.133333v-66.133333a21.333333 21.333333 0 0 1 21.333333-21.333333h21.333334z" /></svg>