<?xml version="1.0" standalone="no"?><!DOCTYPE svg PUBLIC "-//W3C//DTD SVG 1.1//EN" "http://www.w3.org/Graphics/SVG/1.1/DTD/svg11.dtd"><svg class="icon" width="200px" height="200.00px" viewBox="0 0 1024 1024" version="1.1" xmlns="http://www.w3.org/2000/svg"><path fill="#333333" d="M117.333333 944.981333a21.333333 21.333333 0 0 1-21.333333-21.333333V405.333333a21.333333 21.333333 0 0 1 8.277333-16.896l394.666667-304.981333a21.333333 21.333333 0 0 1 26.112 0l394.666667 304.981333a21.333333 21.333333 0 0 1 8.277333 16.896v518.272a21.333333 21.333333 0 0 1-21.333333 21.333334H117.333333zM512 157.952L160 424.106667v456.832h209.194667v-298.666667a21.333333 21.333333 0 0 1 21.333333-21.333333h242.901333a21.333333 21.333333 0 0 1 21.333334 21.333333v298.666667h209.237333V424.106667L512 157.866667z m78.762667 467.029333h-157.568v256h157.568v-256z" /></svg>