<?xml version="1.0" standalone="no"?><!DOCTYPE svg PUBLIC "-//W3C//DTD SVG 1.1//EN" "http://www.w3.org/Graphics/SVG/1.1/DTD/svg11.dtd"><svg class="icon" width="200px" height="200.00px" viewBox="0 0 1024 1024" version="1.1" xmlns="http://www.w3.org/2000/svg"><path fill="#333333" d="M906.752 810.538667a21.333333 21.333333 0 0 1 21.333333 21.333333v21.333333a21.333333 21.333333 0 0 1-21.333333 21.333334h-789.333333a21.333333 21.333333 0 0 1-21.333334-21.333334v-21.333333a21.333333 21.333333 0 0 1 21.333334-21.333333h789.333333z m0-224.512a21.333333 21.333333 0 0 1 21.333333 21.333333v21.333333a21.333333 21.333333 0 0 1-21.333333 21.333334H436.224a21.333333 21.333333 0 0 1-21.333333-21.333334v-21.333333a21.333333 21.333333 0 0 1 21.333333-21.333333h470.528zM100.608 390.442667a21.333333 21.333333 0 0 1 26.752-5.674667l3.242667 2.090667 137.770666 108.373333a21.333333 21.333333 0 0 1 2.773334 30.890667l-2.773334 2.645333-137.813333 108.373333a21.333333 21.333333 0 0 1-34.133333-12.928l-0.384-3.84V403.626667a21.333333 21.333333 0 0 1 4.565333-13.226667z m806.144-16.469334a21.333333 21.333333 0 0 1 21.333333 21.333334v21.333333a21.333333 21.333333 0 0 1-21.333333 21.333333H436.224a21.333333 21.333333 0 0 1-21.333333-21.333333v-21.333333a21.333333 21.333333 0 0 1 21.333333-21.333334h470.528z m0-224.512a21.333333 21.333333 0 0 1 21.333333 21.333334v21.333333a21.333333 21.333333 0 0 1-21.333333 21.333333h-789.333333a21.333333 21.333333 0 0 1-21.333334-21.333333v-21.333333a21.333333 21.333333 0 0 1 21.333334-21.333334h789.333333z" /></svg>