<?xml version="1.0" standalone="no"?><!DOCTYPE svg PUBLIC "-//W3C//DTD SVG 1.1//EN" "http://www.w3.org/Graphics/SVG/1.1/DTD/svg11.dtd"><svg class="icon" width="200px" height="200.00px" viewBox="0 0 1024 1024" version="1.1" xmlns="http://www.w3.org/2000/svg"><path fill="#333333" d="M512 981.333333C252.8 981.333333 42.666667 771.2 42.666667 512S252.8 42.666667 512 42.666667s469.333333 210.133333 469.333333 469.333333-210.133333 469.333333-469.333333 469.333333z m0-64a405.333333 405.333333 0 1 0 0-810.666666 405.333333 405.333333 0 0 0 0 810.666666z m0-562.474666a42.666667 42.666667 0 1 1 0-85.333334 42.666667 42.666667 0 0 1 0 85.333334z m-10.666667 417.365333a21.333333 21.333333 0 0 1-21.333333-21.333333v-311.978667a21.333333 21.333333 0 0 1 21.333333-21.333333h21.333334a21.333333 21.333333 0 0 1 21.333333 21.333333V750.933333a21.333333 21.333333 0 0 1-21.333333 21.333334h-21.333334z" /></svg>