<svg t="1641262658824" class="icon" viewBox="0 0 1024 1024" version="1.1" xmlns="http://www.w3.org/2000/svg" p-id="1942" width="200" height="200"><path d="M512 42.666667c6.016 0 12.032 0.128 18.005333 0.341333L512 42.666667a477.312 477.312 0 0 1 78.506667 6.528 469.973333 469.973333 0 0 1 367.317333 315.648c3.968 5.333333 6.357333 11.946667 6.357333 19.157333l-0.085333 1.536c11.221333 40.234667 17.237333 82.645333 17.237333 126.464s-5.973333 86.229333-17.237333 126.464a31.872 31.872 0 0 1-6.272 20.693333c-58.282667 176.554667-218.453333 306.773333-410.88 320.896a538.88 538.88 0 0 1-19.626667 1.024 477.056 477.056 0 0 1-33.066666-0.085333L512 981.333333a477.312 477.312 0 0 1-78.506667-6.528 469.973333 469.973333 0 0 1-368.341333-318.848 31.36 31.36 0 0 1-4.181333-13.568A471.594667 471.594667 0 0 1 42.666667 512c0-45.226667 6.4-89.002667 18.346666-130.432L60.885333 384c0-5.802667 1.536-11.264 4.266667-15.957333C122.453333 189.866667 283.434667 58.197333 477.013333 43.946667a538.837333 538.837333 0 0 1 19.541334-1.024C501.76 42.752 506.88 42.666667 512 42.666667z m124.16 629.376H387.84c15.786667 99.498667 45.482667 183.978667 81.92 243.114666a413.141333 413.141333 0 0 0 84.48 0c36.437333-59.136 66.133333-143.616 81.92-243.114666z m-313.173333 0h-183.466667a406.485333 406.485333 0 0 0 248.96 226.133333c-29.994667-63.061333-52.736-140.245333-65.450667-226.133333z m561.493333 0h-183.466667c-12.8 85.888-35.456 163.072-65.450666 226.133333a406.613333 406.613333 0 0 0 248.96-226.133333zM315.605333 416H118.101333A406.357333 406.357333 0 0 0 106.666667 512c0 33.109333 3.968 65.28 11.434666 96h197.461334a1121.109333 1121.109333 0 0 1 0-192z m328.618667 0H379.818667a1048.96 1048.96 0 0 0 0 192.042667h264.362666a1048.917333 1048.917333 0 0 0 0-192.042667z m261.717333 0h-197.461333a1121.109333 1121.109333 0 0 1 0 192.042667h197.461333A406.357333 406.357333 0 0 0 917.333333 512c0-33.066667-3.968-65.237333-11.434666-96zM388.437333 125.866667l-8.704 2.901333A406.570667 406.570667 0 0 0 139.477333 352H322.986667c12.714667-85.888 35.413333-163.114667 65.408-226.176zM512 106.666667a410.026667 410.026667 0 0 0-42.24 2.133333c-36.437333 59.178667-66.133333 143.658667-81.92 243.2h248.32c-15.786667-99.541333-45.482667-184.021333-81.92-243.2A412.928 412.928 0 0 0 512 106.666667z m123.52 19.2l2.133333 4.394666c28.928 62.250667 50.901333 137.813333 63.317334 221.738667h183.552a406.485333 406.485333 0 0 0-249.002667-226.133333z" p-id="1943"></path></svg>