<?xml version="1.0" standalone="no"?><!DOCTYPE svg PUBLIC "-//W3C//DTD SVG 1.1//EN" "http://www.w3.org/Graphics/SVG/1.1/DTD/svg11.dtd"><svg class="icon" width="200px" height="200.00px" viewBox="0 0 1024 1024" version="1.1" xmlns="http://www.w3.org/2000/svg"><path fill="#333333" d="M906.666667 96a21.333333 21.333333 0 0 1 21.333333 21.333333v789.333334a21.333333 21.333333 0 0 1-21.333333 21.333333H117.333333a21.333333 21.333333 0 0 1-21.333333-21.333333V117.333333a21.333333 21.333333 0 0 1 21.333333-21.333333h789.333334z m-42.666667 64H160v704h704V160z m-245.504 143.274667a21.333333 21.333333 0 0 1 27.306667 0.981333l2.645333 2.816 13.056 16.853333 2.090667 3.242667a21.333333 21.333333 0 0 1-3.029334 24.064l-2.858666 2.602667L453.802667 512l203.946666 158.165333 2.816 2.602667a21.333333 21.333333 0 0 1 2.986667 24.064l-2.048 3.242667-13.056 16.853333a21.333333 21.333333 0 0 1-26.709333 5.845333l-3.242667-2.048L371.2 528.853333a21.333333 21.333333 0 0 1-2.816-31.104l2.816-2.602666 247.338667-191.872z" /></svg>