<?xml version="1.0" standalone="no"?><!DOCTYPE svg PUBLIC "-//W3C//DTD SVG 1.1//EN" "http://www.w3.org/Graphics/SVG/1.1/DTD/svg11.dtd"><svg class="icon" width="200px" height="200.00px" viewBox="0 0 1024 1024" version="1.1" xmlns="http://www.w3.org/2000/svg"><path fill="#333333" d="M981.333333 512c0 259.2-210.133333 469.333333-469.333333 469.333333S42.666667 771.2 42.666667 512 252.8 42.666667 512 42.666667s469.333333 210.133333 469.333333 469.333333z m-320.768 160.768l-2.858666-2.602667L453.802667 512l203.946666-158.165333a21.333333 21.333333 0 0 0 5.845334-26.666667l-2.090667-3.242667-13.056-16.853333a21.333333 21.333333 0 0 0-29.952-3.797333L371.2 495.146667a21.333333 21.333333 0 0 0 0 33.706666l247.338667 191.872a21.333333 21.333333 0 0 0 29.952-3.797333l13.056-16.853333a21.333333 21.333333 0 0 0-0.938667-27.306667z" /></svg>