<?xml version="1.0" standalone="no"?><!DOCTYPE svg PUBLIC "-//W3C//DTD SVG 1.1//EN" "http://www.w3.org/Graphics/SVG/1.1/DTD/svg11.dtd"><svg class="icon" width="200px" height="200.00px" viewBox="0 0 1024 1024" version="1.1" xmlns="http://www.w3.org/2000/svg"><path fill="#333333" d="M315.733333 412.842667a21.333333 21.333333 0 0 1 2.474667 27.221333l-2.474667 2.944-101.546666 101.418667a187.861333 187.861333 0 0 0 259.072 271.957333l107.946666-107.904a21.333333 21.333333 0 0 1 30.208 0l15.146667 15.189333a21.333333 21.333333 0 0 1 0 30.165334l-101.418667 101.546666a251.861333 251.861333 0 0 1-362.752-349.44l108.074667-108.245333a21.333333 21.333333 0 0 1 27.178667-2.474667l2.986666 2.474667 15.104 15.146667z m332.074667-21.674667a21.333333 21.333333 0 0 1 0 30.165333l-226.133333 226.176a21.333333 21.333333 0 0 1-30.208 0l-15.061334-15.104a21.333333 21.333333 0 0 1 0-30.165333l226.133334-226.133333a21.333333 21.333333 0 0 1 30.165333 0l15.104 15.061333z m207.786667-222.506667a251.861333 251.861333 0 0 1 6.570666 349.397334l-6.528 6.826666-101.546666 101.418667a21.333333 21.333333 0 0 1-27.221334 2.474667l-2.986666-2.474667-15.104-15.146667a21.333333 21.333333 0 0 1-2.474667-27.221333l2.474667-2.986667 107.861333-107.946666a187.861333 187.861333 0 0 0-265.386667-265.386667l-6.570666 6.314667-101.418667 101.546666-2.986667 2.474667a21.333333 21.333333 0 0 1-24.234666 0l-2.944-2.474667-15.146667-15.146666-2.474667-2.986667a21.333333 21.333333 0 0 1 0-24.192l2.474667-2.986667L506.24 162.133333a251.861333 251.861333 0 0 1 349.397333 6.528z" /></svg>