<?xml version="1.0" standalone="no"?><!DOCTYPE svg PUBLIC "-//W3C//DTD SVG 1.1//EN" "http://www.w3.org/Graphics/SVG/1.1/DTD/svg11.dtd"><svg t="1630573557868" class="icon" viewBox="0 0 1024 1024" version="1.1" xmlns="http://www.w3.org/2000/svg" p-id="1666" xmlns:xlink="http://www.w3.org/1999/xlink" width="200" height="200"><defs><style type="text/css"></style></defs><path d="M469.333333 42.453333m42.666667 0l0 0q42.666667 0 42.666667 42.666667l0 128q0 42.666667-42.666667 42.666667l0 0q-42.666667 0-42.666667-42.666667l0-128q0-42.666667 42.666667-42.666667Z" fill="#000000" fill-opacity=".7" p-id="1667"></path><path d="M469.333333 768.213333m42.666667 0l0 0q42.666667 0 42.666667 42.666667l0 128q0 42.666667-42.666667 42.666667l0 0q-42.666667 0-42.666667-42.666667l0-128q0-42.666667 42.666667-42.666667Z" fill="#000000" fill-opacity=".2" p-id="1668"></path><path d="M42.666667 554.453333m0-42.666666l0 0q0-42.666667 42.666666-42.666667l128 0q42.666667 0 42.666667 42.666667l0 0q0 42.666667-42.666667 42.666666l-128 0q-42.666667 0-42.666666-42.666666Z" fill="#000000" fill-opacity=".4" p-id="1669"></path><path d="M768 554.453333m0-42.666666l0 0q0-42.666667 42.666667-42.666667l128 0q42.666667 0 42.666666 42.666667l0 0q0 42.666667-42.666666 42.666666l-128 0q-42.666667 0-42.666667-42.666666Z" fill="#000000" p-id="1670"></path><path d="M149.808054 210.147833m30.169889-30.16989l0 0q30.169889-30.169889 60.339779 0l90.509668 90.509668q30.169889 30.169889 0 60.339779l0 0q-30.169889 30.169889-60.339779 0l-90.509668-90.509668q-30.169889-30.169889 0-60.339779Z" fill="#000000" fill-opacity=".55" p-id="1671"></path><path d="M663.002721 723.342499m30.169889-30.169889l0 0q30.169889-30.169889 60.339779 0l90.509668 90.509668q30.169889 30.169889 0 60.339779l0 0q-30.169889 30.169889-60.339779 0l-90.509668-90.509668q-30.169889-30.169889 0-60.339779Z" fill="#000000" fill-opacity=".1" p-id="1672"></path><path d="M210.147833 873.893279m-30.16989-30.169889l0 0q-30.169889-30.169889 0-60.339779l90.509668-90.509668q30.169889-30.169889 60.339779 0l0 0q30.169889 30.169889 0 60.339779l-90.509668 90.509668q-30.169889 30.169889-60.339779 0Z" fill="#000000" fill-opacity=".3" p-id="1673"></path><path d="M723.043833 360.997279m-30.16989-30.169889l0 0q-30.169889-30.169889 0-60.339779l90.509668-90.509668q30.169889-30.169889 60.339779 0l0 0q30.169889 30.169889 0 60.339779l-90.509668 90.509668q-30.169889 30.169889-60.339779 0Z" fill="#000000" fill-opacity=".85" p-id="1674"></path></svg>