<?xml version="1.0" standalone="no"?><!DOCTYPE svg PUBLIC "-//W3C//DTD SVG 1.1//EN" "http://www.w3.org/Graphics/SVG/1.1/DTD/svg11.dtd"><svg t="1706253111540" class="icon" viewBox="0 0 1024 1024" version="1.1" xmlns="http://www.w3.org/2000/svg" p-id="2420" xmlns:xlink="http://www.w3.org/1999/xlink" width="200" height="200"><path d="M960 149.418667a21.333333 21.333333 0 0 1 21.333333 21.333333v682.496a21.333333 21.333333 0 0 1-21.333333 21.333333h-896a21.333333 21.333333 0 0 1-21.333333-21.333333V170.752a21.333333 21.333333 0 0 1 21.333333-21.333333h896zM106.624 385.28l0.042667 425.301333H917.333333V385.322667l-394.581333 227.84a21.333333 21.333333 0 0 1-21.333333 0L106.581333 385.28zM917.333333 213.418667H106.624v97.92l405.333333 234.112L917.333333 311.466667l0.042667-98.005334z" fill="#000000" p-id="2421"></path></svg>