<?xml version="1.0" standalone="no"?><!DOCTYPE svg PUBLIC "-//W3C//DTD SVG 1.1//EN" "http://www.w3.org/Graphics/SVG/1.1/DTD/svg11.dtd"><svg class="icon" width="200px" height="200.00px" viewBox="0 0 1024 1024" version="1.1" xmlns="http://www.w3.org/2000/svg"><path fill="#333333" d="M906.837333 661.248l10.368 18.645333a21.333333 21.333333 0 0 1-8.277333 29.013334l-390.144 217.216a21.333333 21.333333 0 0 1-20.906667-0.085334l-383.232-217.130666a21.333333 21.333333 0 0 1-8.021333-29.056l10.496-18.56a21.333333 21.333333 0 0 1 29.098667-8.064l362.325333 205.312 369.237333-205.568a21.333333 21.333333 0 0 1 29.013334 8.277333z m0-181.034667l10.368 18.645334a21.333333 21.333333 0 0 1-8.277333 29.013333l-390.144 217.258667a21.333333 21.333333 0 0 1-20.906667-0.085334l-383.232-217.173333a21.333333 21.333333 0 0 1-8.021333-29.056l10.496-18.56a21.333333 21.333333 0 0 1 29.098667-8.064l362.325333 205.312 369.237333-205.568a21.333333 21.333333 0 0 1 29.013334 8.277333z m-380.416-381.781333l391.04 221.738667a21.333333 21.333333 0 0 1-0.128 37.205333l-398.848 222.08a21.333333 21.333333 0 0 1-20.906666-0.085333L106.24 357.632a21.333333 21.333333 0 0 1 0.128-37.205333l399.146667-222.08a21.333333 21.333333 0 0 1 20.906666 0.085333z m-10.752 67.413333L203.861333 339.456l304.384 172.458667 311.594667-173.482667-304.213333-172.501333z" /></svg>