<?xml version="1.0" standalone="no"?><!DOCTYPE svg PUBLIC "-//W3C//DTD SVG 1.1//EN" "http://www.w3.org/Graphics/SVG/1.1/DTD/svg11.dtd"><svg class="icon" width="200px" height="200.00px" viewBox="0 0 1024 1024" version="1.1" xmlns="http://www.w3.org/2000/svg"><path fill="#333333" d="M906.666667 96a21.333333 21.333333 0 0 1 21.333333 21.333333v789.333334a21.333333 21.333333 0 0 1-21.333333 21.333333H117.333333a21.333333 21.333333 0 0 1-21.333333-21.333333V117.333333a21.333333 21.333333 0 0 1 21.333333-21.333333h789.333334z m-42.666667 64H160v704h704V160z m-160 320a21.333333 21.333333 0 0 1 21.333333 21.333333v21.333334a21.333333 21.333333 0 0 1-21.333333 21.333333h-384a21.333333 21.333333 0 0 1-21.333333-21.333333v-21.333334a21.333333 21.333333 0 0 1 21.333333-21.333333h384z" /></svg>