<?xml version="1.0" standalone="no"?><!DOCTYPE svg PUBLIC "-//W3C//DTD SVG 1.1//EN" "http://www.w3.org/Graphics/SVG/1.1/DTD/svg11.dtd"><svg class="icon" width="200px" height="200.00px" viewBox="0 0 1024 1024" version="1.1" xmlns="http://www.w3.org/2000/svg"><path fill="#333333" d="M843.861333 180.138667c183.296 183.296 183.296 480.426667 0 663.722666-183.296 183.296-480.426667 183.296-663.722666 0-183.296-183.296-183.296-480.426667 0-663.722666 183.296-183.296 480.426667-183.296 663.722666 0zM704 480h-384a21.333333 21.333333 0 0 0-20.992 17.493333L298.666667 501.333333v21.333334a21.333333 21.333333 0 0 0 17.493333 20.992l3.84 0.341333h384a21.333333 21.333333 0 0 0 20.992-17.493333l0.341333-3.84v-21.333334a21.333333 21.333333 0 0 0-17.493333-20.992l-3.84-0.341333z" /></svg>