<?xml version="1.0" standalone="no"?><!DOCTYPE svg PUBLIC "-//W3C//DTD SVG 1.1//EN" "http://www.w3.org/Graphics/SVG/1.1/DTD/svg11.dtd"><svg class="icon" width="200px" height="200.00px" viewBox="0 0 1024 1024" version="1.1" xmlns="http://www.w3.org/2000/svg"><path fill="#333333" d="M42.666667 512C42.666667 252.8 252.8 42.666667 512 42.666667s469.333333 210.133333 469.333333 469.333333-210.133333 469.333333-469.333333 469.333333S42.666667 771.2 42.666667 512z m64 0a405.333333 405.333333 0 1 0 810.666666 0 405.333333 405.333333 0 0 0-810.666666 0z m555.434666 0a56.021333 56.021333 0 1 1 112 0 56.021333 56.021333 0 0 1-112 0z m-206.08 0a56.021333 56.021333 0 1 1 112 0 56.021333 56.021333 0 0 1-112.042666 0zM248.32 512a56.021333 56.021333 0 1 1 112 0 56.021333 56.021333 0 0 1-112 0z" /></svg>