<?xml version="1.0" standalone="no"?><!DOCTYPE svg PUBLIC "-//W3C//DTD SVG 1.1//EN" "http://www.w3.org/Graphics/SVG/1.1/DTD/svg11.dtd"><svg class="icon" width="200px" height="200.00px" viewBox="0 0 1024 1024" version="1.1" xmlns="http://www.w3.org/2000/svg"><path fill="#333333" d="M42.666667 512C42.666667 252.8 252.8 42.666667 512 42.666667s469.333333 210.133333 469.333333 469.333333-210.133333 469.333333-469.333333 469.333333S42.666667 771.2 42.666667 512z m620.245333 0a56.021333 56.021333 0 1 0 112 0 56.021333 56.021333 0 0 0-112 0z m-206.122667 0a56.021333 56.021333 0 1 0 112 0 56.021333 56.021333 0 0 0-112 0z m-207.701333 0a56.021333 56.021333 0 1 0 112 0 56.021333 56.021333 0 0 0-112 0z" /></svg>