<?xml version="1.0" standalone="no"?><!DOCTYPE svg PUBLIC "-//W3C//DTD SVG 1.1//EN" "http://www.w3.org/Graphics/SVG/1.1/DTD/svg11.dtd"><svg class="icon" width="200px" height="200.00px" viewBox="0 0 1024 1024" version="1.1" xmlns="http://www.w3.org/2000/svg"><path fill="#333333" d="M512 96.768a224 224 0 0 1 223.829333 214.784l0.170667 9.216v106.069333h116.992a21.333333 21.333333 0 0 1 21.333333 21.333334v457.984a21.333333 21.333333 0 0 1-21.333333 21.333333H170.666667a21.333333 21.333333 0 0 1-21.333334-21.333333V448.170667a21.333333 21.333333 0 0 1 21.333334-21.333334h117.333333V320.768c0-123.733333 100.266667-224 224-224z m298.325333 394.069333H213.333333v372.608h596.992v-372.608z m-287.658666 117.077334a21.333333 21.333333 0 0 1 21.333333 21.333333v95.744a21.333333 21.333333 0 0 1-21.333333 21.333333h-21.333334a21.333333 21.333333 0 0 1-21.333333-21.333333v-95.744a21.333333 21.333333 0 0 1 21.333333-21.333333h21.333334zM512 160.768a160 160 0 0 0-159.786667 151.466667l-0.213333 8.533333v106.069333h320V320.768A160 160 0 0 0 512 160.768z" /></svg>