<?xml version="1.0" standalone="no"?><!DOCTYPE svg PUBLIC "-//W3C//DTD SVG 1.1//EN" "http://www.w3.org/Graphics/SVG/1.1/DTD/svg11.dtd"><svg class="icon" width="200px" height="200.00px" viewBox="0 0 1024 1024" version="1.1" xmlns="http://www.w3.org/2000/svg"><path fill="#333333" d="M960 149.418667a21.333333 21.333333 0 0 1 21.333333 21.333333v682.496a21.333333 21.333333 0 0 1-21.333333 21.333333h-896a21.333333 21.333333 0 0 1-21.333333-21.333333V170.752a21.333333 21.333333 0 0 1 21.333333-21.333333h896z m-289.536 326.442666l-231.594667 272.384a21.333333 21.333333 0 0 1-32.682666-0.170666l-140.074667-168.96-159.488 187.861333v43.562667H917.333333v-43.52l-246.869333-291.157334z m246.869333-262.4h-810.666666v454.570667l143.616-169.088a21.333333 21.333333 0 0 1 32.682666 0.213333l139.989334 168.917334 231.296-271.914667a21.333333 21.333333 0 0 1 32.512 0l230.570666 271.829333V213.418667zM416 277.333333a96 96 0 1 1 0 192 96 96 0 0 1 0-192z m0 64a32 32 0 1 0 0 64 32 32 0 0 0 0-64z" /></svg>