<?xml version="1.0" standalone="no"?><!DOCTYPE svg PUBLIC "-//W3C//DTD SVG 1.1//EN" "http://www.w3.org/Graphics/SVG/1.1/DTD/svg11.dtd"><svg class="icon" width="200px" height="200.00px" viewBox="0 0 1024 1024" version="1.1" xmlns="http://www.w3.org/2000/svg"><path fill="#333333" d="M496.64 88.618667l465.365333 52.309333a21.333333 21.333333 0 0 1 18.858667 23.04L915.797333 907.52a21.333333 21.333333 0 0 1-23.125333 19.413333L422.272 885.76a21.333333 21.333333 0 0 1-19.285333-18.56l-20.138667-158.165333 0.170667-0.426667 21.162666-233.941333-165.12-182.528a21.333333 21.333333 0 0 1-4.266666-21.546667l38.784-107.605333-162.090667 19.968 45.738667 522.922666 163.072-25.472a21.333333 21.333333 0 0 1 23.466666 14.037334l1.024 4.565333 2.432 21.162667a21.333333 21.333333 0 0 1-17.92 23.552l-166.485333 26.026666 8.106667 92.8 175.232-30.634666a21.333333 21.333333 0 0 1 23.722666 13.653333l1.152 4.778667 2.56 20.864a21.333333 21.333333 0 0 1-17.749333 23.68l-220.16 35.669333a21.333333 21.333333 0 0 1-24.490667-17.621333L44.202667 147.584a21.333333 21.333333 0 0 1 18.602666-23.04l278.186667-34.261333a21.333333 21.333333 0 0 1 22.570667 28.757333L312.192 254.293333l160.170667 180.906667a21.333333 21.333333 0 0 1 5.205333 16.682667l-12.586667 105.301333 87.381334-161.493333-140.373334-146.602667a21.333333 21.333333 0 0 1-3.370666-24.874667l66.816-124.458666a21.333333 21.333333 0 0 1 21.162666-11.093334z m-43.605333 663.082666l7.594666 73.173334 395.093334 34.56 5.717333-65.408-408.405333-42.325334zM518.613333 154.453333l-37.632 70.4 148.992 154.666667a21.333333 21.333333 0 0 1 3.2 25.301333l-160.554666 284.629334 394.410666 40.874666L913.322667 201.386667l-394.666667-46.976z m249.045334 110.506667a55.978667 55.978667 0 1 1 0 112 55.978667 55.978667 0 0 1 0-112z" /></svg>