<?xml version="1.0" standalone="no"?><!DOCTYPE svg PUBLIC "-//W3C//DTD SVG 1.1//EN" "http://www.w3.org/Graphics/SVG/1.1/DTD/svg11.dtd"><svg t="1706253850658" class="icon" viewBox="0 0 1024 1024" version="1.1" xmlns="http://www.w3.org/2000/svg" p-id="2561" xmlns:xlink="http://www.w3.org/1999/xlink" width="200" height="200"><path d="M512 42.666667c259.2 0 469.333333 210.133333 469.333333 469.333333s-210.133333 469.333333-469.333333 469.333333S42.666667 771.2 42.666667 512 252.8 42.666667 512 42.666667z m0 64a405.333333 405.333333 0 1 0 0 810.666666 405.333333 405.333333 0 0 0 0-810.666666zM407.552 286.165333a17.066667 17.066667 0 0 1 9.685333 2.986667l294.144 201.984 2.645334 2.261333a17.066667 17.066667 0 0 1-2.645334 25.898667L417.28 721.749333l-2.986667 1.706667a17.066667 17.066667 0 0 1-23.765333-15.786667V303.274667l0.384-3.413334a17.066667 17.066667 0 0 1 16.682667-13.653333z m46.933333 106.24v225.962667l164.352-113.109333-164.352-112.853334z" fill="#000000" p-id="2562"></path></svg>