<?xml version="1.0" standalone="no"?><!DOCTYPE svg PUBLIC "-//W3C//DTD SVG 1.1//EN" "http://www.w3.org/Graphics/SVG/1.1/DTD/svg11.dtd"><svg class="icon" width="200px" height="200.00px" viewBox="0 0 1024 1024" version="1.1" xmlns="http://www.w3.org/2000/svg"><path fill="#333333" d="M843.861333 180.138667c183.296 183.296 183.296 480.426667 0 663.722666-183.296 183.296-480.426667 183.296-663.722666 0-183.296-183.296-183.296-480.426667 0-663.722666 183.296-183.296 480.426667-183.296 663.722666 0zM225.365333 225.365333a405.333333 405.333333 0 1 0 573.269334 573.269334A405.333333 405.333333 0 0 0 225.365333 225.365333zM522.666667 298.666667a21.333333 21.333333 0 0 1 21.333333 21.333333v160h160a21.333333 21.333333 0 0 1 21.333333 21.333333v21.333334a21.333333 21.333333 0 0 1-21.333333 21.333333h-160v160a21.333333 21.333333 0 0 1-21.333333 21.333333h-21.333334a21.333333 21.333333 0 0 1-21.333333-21.333333v-160H320a21.333333 21.333333 0 0 1-21.333333-21.333333v-21.333334a21.333333 21.333333 0 0 1 21.333333-21.333333h160V320a21.333333 21.333333 0 0 1 21.333333-21.333333h21.333334z" /></svg>