<?xml version="1.0" standalone="no"?><!DOCTYPE svg PUBLIC "-//W3C//DTD SVG 1.1//EN" "http://www.w3.org/Graphics/SVG/1.1/DTD/svg11.dtd"><svg class="icon" width="200px" height="200.00px" viewBox="0 0 1024 1024" version="1.1" xmlns="http://www.w3.org/2000/svg"><path fill="#333333" d="M522.496 48.597333l394.496 222.634667a21.333333 21.333333 0 0 1 10.837333 18.56v444.416a21.333333 21.333333 0 0 1-10.837333 18.56l-394.496 222.634667a21.333333 21.333333 0 0 1-20.992 0l-394.496-222.634667a21.333333 21.333333 0 0 1-10.837333-18.56V289.792a21.333333 21.333333 0 0 1 10.837333-18.56l394.496-222.634667a21.333333 21.333333 0 0 1 20.992 0zM160.128 340.992v368.256l319.872 180.48V525.653333l-1.493333-0.768-318.378667-183.850666z m703.658667 1.152l-316.288 182.698667a21.461333 21.461333 0 0 1-3.456 1.578666l-0.042667 363.306667 319.786667-180.48V342.186667zM512 116.138667L201.813333 291.114667l308.736 178.304 2.474667 1.706666 2.517333-1.706666 307.626667-177.706667L512 116.138667z" /></svg>