<?xml version="1.0" standalone="no"?><!DOCTYPE svg PUBLIC "-//W3C//DTD SVG 1.1//EN" "http://www.w3.org/Graphics/SVG/1.1/DTD/svg11.dtd"><svg class="icon" width="200px" height="200.00px" viewBox="0 0 1024 1024" version="1.1" xmlns="http://www.w3.org/2000/svg"><path fill="#333333" d="M512 42.666667c259.2 0 469.333333 210.133333 469.333333 469.333333s-210.133333 469.333333-469.333333 469.333333S42.666667 771.2 42.666667 512 252.8 42.666667 512 42.666667z m0 64a405.333333 405.333333 0 1 0 0 810.666666 405.333333 405.333333 0 0 0 0-810.666666z m0 562.474666a42.666667 42.666667 0 1 1 0 85.333334 42.666667 42.666667 0 0 1 0-85.333334z m0-446.293333a161.152 161.152 0 0 1 121.770667 266.666667c-11.605333 13.397333-22.186667 21.930667-38.912 32.597333l-20.266667 12.586667a103.68 103.68 0 0 0-16.597333 12.8c-8.405333 7.936-12.672 15.872-13.738667 24.789333l-0.085333 13.354667a21.333333 21.333333 0 0 1-21.333334 21.205333h-21.504a21.333333 21.333333 0 0 1-21.333333-21.333333v-8.661334c0-28.928 11.776-54.741333 33.92-75.776 7.808-7.424 14.506667-12.672 24.32-19.072l15.616-9.813333c16.213333-9.856 23.637333-15.445333 31.573333-24.618667a97.152 97.152 0 1 0-169.685333-76.672l-0.426667 16.64a21.333333 21.333333 0 0 1-21.333333 20.821334h-21.589333a21.333333 21.333333 0 0 1-20.949334-17.493334l-0.384-4.053333 0.170667-13.525333A161.152 161.152 0 0 1 512 222.848z" /></svg>