<?xml version="1.0" standalone="no"?><!DOCTYPE svg PUBLIC "-//W3C//DTD SVG 1.1//EN" "http://www.w3.org/Graphics/SVG/1.1/DTD/svg11.dtd"><svg class="icon" width="200px" height="200.00px" viewBox="0 0 1024 1024" version="1.1" xmlns="http://www.w3.org/2000/svg"><path fill="#333333" d="M512 42.666667c259.2 0 469.333333 210.133333 469.333333 469.333333s-210.133333 469.333333-469.333333 469.333333S42.666667 771.2 42.666667 512 252.8 42.666667 512 42.666667z m0 626.474666a42.666667 42.666667 0 1 0 0 85.333334 42.666667 42.666667 0 0 0 0-85.333334z m0-446.293333A161.152 161.152 0 0 0 351.232 373.333333l-0.170667 13.525334c0 12.032 9.557333 21.546667 21.333334 21.546666h21.632a21.333333 21.333333 0 0 0 21.333333-20.821333l0.384-16.64a97.152 97.152 0 1 1 169.685333 76.672c-7.936 9.173333-15.36 14.762667-31.573333 24.661333l-15.616 9.770667c-9.813333 6.4-16.512 11.648-24.32 19.072-22.186667 21.034667-33.92 46.848-33.92 75.776v8.661333a21.333333 21.333333 0 0 0 21.333333 21.333334h21.504a21.333333 21.333333 0 0 0 21.333334-21.205334l0.085333-13.354666c1.066667-8.96 5.333333-16.853333 13.738667-24.832a103.68 103.68 0 0 1 16.597333-12.757334l20.266667-12.586666A160.597333 160.597333 0 0 0 673.152 384 161.152 161.152 0 0 0 512 222.848z" /></svg>