<?xml version="1.0" standalone="no"?><!DOCTYPE svg PUBLIC "-//W3C//DTD SVG 1.1//EN" "http://www.w3.org/Graphics/SVG/1.1/DTD/svg11.dtd"><svg class="icon" width="200px" height="200.00px" viewBox="0 0 1024 1024" version="1.1" xmlns="http://www.w3.org/2000/svg"><path d="M297.813333 133.12a32 32 0 0 1 31.402667 55.765333 372.352 372.352 0 0 0-190.165333 325.162667A372.949333 372.949333 0 1 0 695.68 189.44a32 32 0 1 1 31.573333-55.68c14.293333 8.106667 28.16 17.066667 41.386667 26.709333a436.309333 436.309333 0 0 1 180.309333 353.621334c0 241.322667-195.626667 436.949333-436.949333 436.949333S75.050667 755.370667 75.050667 514.133333a436.352 436.352 0 0 1 222.72-380.928z"  /><path d="M544 74.666667V362.666667a21.333333 21.333333 0 0 1-21.333333 21.333333h-21.333334a21.333333 21.333333 0 0 1-21.333333-21.333333V74.666667a21.333333 21.333333 0 0 1 21.333333-21.333334h21.333334a21.333333 21.333333 0 0 1 21.333333 21.333334z"  /></svg>