<?xml version="1.0" standalone="no"?><!DOCTYPE svg PUBLIC "-//W3C//DTD SVG 1.1//EN" "http://www.w3.org/Graphics/SVG/1.1/DTD/svg11.dtd"><svg class="icon" width="200px" height="200.00px" viewBox="0 0 1024 1024" version="1.1" xmlns="http://www.w3.org/2000/svg"><path fill="#333333" d="M512 95.914667a414.848 414.848 0 0 1 297.472 125.141333V117.461333a21.333333 21.333333 0 0 1 21.333333-21.333333h21.333334a21.333333 21.333333 0 0 1 21.333333 21.333333v214.613334a21.333333 21.333333 0 0 1-21.333333 21.333333h-214.613334a21.333333 21.333333 0 0 1-21.333333-21.333333v-21.333334a21.333333 21.333333 0 0 1 21.333333-21.333333h147.285334A352.085333 352.085333 0 1 0 864.128 512l-0.469333-14.464-0.341334-5.845333a21.333333 21.333333 0 0 1 16.085334-22.101334l4.48-0.597333h22.101333a21.333333 21.333333 0 0 1 21.333333 20.053333l0.725334 18.176 0.042666 4.778667c0 229.802667-186.282667 416.085333-416.085333 416.085333-229.802667 0-416.085333-186.282667-416.085333-416.085333 0-229.802667 186.282667-416.085333 416.085333-416.085333z" /></svg>