<?xml version="1.0" standalone="no"?><!DOCTYPE svg PUBLIC "-//W3C//DTD SVG 1.1//EN" "http://www.w3.org/Graphics/SVG/1.1/DTD/svg11.dtd"><svg class="icon" width="200px" height="200.00px" viewBox="0 0 1024 1024" version="1.1" xmlns="http://www.w3.org/2000/svg"><path fill="#333333" d="M906.666667 96a21.333333 21.333333 0 0 1 21.333333 21.333333v789.333334a21.333333 21.333333 0 0 1-21.333333 21.333333H117.333333a21.333333 21.333333 0 0 1-21.333333-21.333333V117.333333a21.333333 21.333333 0 0 1 21.333333-21.333333h789.333334z m-42.666667 64H160v704h704V160zM405.504 303.274667l247.338667 191.872a21.333333 21.333333 0 0 1 0 33.706666l-247.338667 191.872a21.333333 21.333333 0 0 1-29.952-3.797333l-13.056-16.853333a21.333333 21.333333 0 0 1 0.938667-27.306667l2.858666-2.602667L570.197333 512l-203.946666-158.165333a21.333333 21.333333 0 0 1-5.845334-26.666667l2.090667-3.242667 13.056-16.853333a21.333333 21.333333 0 0 1 29.952-3.797333z" /></svg>