<?xml version="1.0" standalone="no"?><!DOCTYPE svg PUBLIC "-//W3C//DTD SVG 1.1//EN" "http://www.w3.org/Graphics/SVG/1.1/DTD/svg11.dtd"><svg class="icon" width="200px" height="200.00px" viewBox="0 0 1024 1024" version="1.1" xmlns="http://www.w3.org/2000/svg"><path fill="#333333" d="M511.701333 42.624l14.506667 0.384c5.205333 0.213333 10.794667 0.597333 16.810667 1.109333l19.2 1.877334 21.632 2.602666 11.690666 1.621334 25.173334 3.754666 21.76 118.656v0.853334a362.24 362.24 0 0 1 97.152 56.149333l0.896-0.426667 99.328-35.413333a21.333333 21.333333 0 0 1 23.893333 6.826667c25.6 32.426667 43.904 58.026667 54.784 76.8l2.56 4.650666 5.76 11.136 6.485333 13.653334 7.253334 16.256 8.021333 18.773333 8.789333 21.248a21.333333 21.333333 0 0 1-5.973333 24.32l-80.213333 68.053333-0.853334 0.512a365.44 365.44 0 0 1 0 111.914667l0.853334 0.512 80.298666 68.309333a21.333333 21.333333 0 0 1 5.973334 24.106667l-9.813334 24.149333c-11.050667 26.496-20.821333 47.061333-29.269333 61.696a234.794667 234.794667 0 0 1-5.888 9.6l-7.68 11.52-9.514667 13.397334-11.306666 15.36-20.394667 26.666666a21.333333 21.333333 0 0 1-24.021333 6.997334l-99.072-35.498667-0.853334-0.426667a362.24 362.24 0 0 1-97.194666 56.149334v0.768l-18.986667 103.722666a21.333333 21.333333 0 0 1-17.877333 17.28l-13.269334 1.877334-24.405333 3.157333c-3.84 0.426667-7.552 0.853333-11.136 1.194667l-20.181333 1.792a354.133333 354.133333 0 0 1-24.917334 1.024l-11.221333-0.298667-13.824-0.938667-16.384-1.493333-18.986667-2.133333-21.546666-2.730667-11.733334-1.578667a21.333333 21.333333 0 0 1-18.048-17.322666l-18.773333-103.552-0.085333-0.896a362.282667 362.282667 0 0 1-96.768-56.021334l-0.853334 0.512-99.2 35.498667a21.333333 21.333333 0 0 1-23.893333-6.826667c-5.717333-7.168-11.093333-14.037333-16.042667-20.565333l-13.781333-18.56a451.328 451.328 0 0 1-24.96-37.632c-5.546667-9.557333-11.605333-21.674667-18.304-36.352l-8.234667-18.773333-8.832-21.290667-9.301333-23.68 91.904-78.165333 0.810667-0.426667a365.44 365.44 0 0 1 0-112.213333l-0.853334-0.426667-91.989333-77.994667 9.386667-23.637333 4.437333-10.922667 8.533333-20.053333c8.234667-18.773333 15.701333-33.92 22.314667-45.44 2.218667-3.84 4.736-7.936 7.594667-12.373333l9.386666-13.994667c3.413333-4.949333 7.168-10.197333 11.221334-15.701333l13.098666-17.408 14.933334-19.114667 8.106666-10.154667 113.664 40.533334 0.896 0.469333A362.282667 362.282667 0 0 1 381.098667 173.653333l0.042666-1.024 21.589334-118.656a531.029333 531.029333 0 0 1 108.970666-11.349333z m0 64c-12.8 0-25.642667 0.512-38.442666 1.578667l-15.658667 1.621333-12.672 69.802667-1.493333 38.528-39.253334 15.189333a297.941333 297.941333 0 0 0-69.12 38.016l-10.496 8.106667-33.493333 27.008-34.048-18.816-66.218667-23.637334-9.258666 12.842667a463.786667 463.786667 0 0 0-10.666667 16.042667l-9.984 16.469333c-6.4 11.093333-12.373333 22.485333-17.834667 34.133333l-6.4 14.336L188.586667 401.877333l35.413333 18.176-7.125333 45.653334a301.44 301.44 0 0 0-1.962667 77.226666l1.962667 15.317334 6.869333 44.245333-34.432 18.944-52.608 44.714667 6.485333 14.506666c2.730667 5.802667 5.589333 11.52 8.533334 17.237334l9.301333 16.853333c6.4 11.093333 13.312 21.973333 20.608 32.512l9.216 12.714667 65.92-23.594667 34.005333-19.114667 33.792 27.264c20.565333 16.64 43.264 30.421333 67.413334 41.088l12.245333 5.034667 39.04 15.104 1.578667 38.144 12.757333 70.144 6.058667 0.725333c10.666667 1.109333 21.333333 1.877333 32 2.218667l16.042666 0.298667c12.842667 0 25.685333-0.554667 38.485334-1.621334l15.701333-1.664 12.586667-68.778666 0.128-38.698667 40.832-15.786667a297.941333 297.941333 0 0 0 69.546666-38.101333l10.496-8.106667 32.725334-26.453333 34.261333 18.005333 66.645333 23.850667 3.669334-4.864c6.314667-8.661333 12.288-17.536 17.92-26.624l8.277333-13.738667c6.4-11.093333 12.373333-22.485333 17.834667-34.133333l6.442666-14.464-53.632-45.610667-33.066666-19.925333 6.570666-42.410667a301.44 301.44 0 0 0 1.962667-77.098666l-1.962667-15.274667-6.485333-41.813333 32.725333-20.394667 53.930667-45.696-2.346667-5.632a463.786667 463.786667 0 0 0-14.08-28.8l-7.765333-14.037333a463.786667 463.786667 0 0 0-20.650667-32.512l-9.258666-12.8-67.242667 23.936-34.005333 17.664-32.512-26.24a298.624 298.624 0 0 0-67.712-41.173334l-12.288-5.077333-40.832-15.744-0.128-38.826667-12.586667-68.778666-15.701333-1.664c-6.4-0.512-12.8-0.938667-19.2-1.194667l-19.285334-0.426667zM512 320a192 192 0 1 1 0 384 192 192 0 0 1 0-384zM512 384a128 128 0 1 0 0 256 128 128 0 0 0 0-256z" /></svg>