<?xml version="1.0" standalone="no"?><!DOCTYPE svg PUBLIC "-//W3C//DTD SVG 1.1//EN" "http://www.w3.org/Graphics/SVG/1.1/DTD/svg11.dtd"><svg class="icon" width="200px" height="200.00px" viewBox="0 0 1024 1024" version="1.1" xmlns="http://www.w3.org/2000/svg"><path fill="#333333" d="M855.04 170.026667a251.861333 251.861333 0 0 1 6.570667 349.44l-335.914667 336.128a251.861333 251.861333 0 0 1-362.752-349.397334L340.693333 328.106667a155.605333 155.605333 0 0 1 225.749334 214.058666l-194.730667 195.029334a21.333333 21.333333 0 0 1-30.165333 0l-15.104-15.061334a21.333333 21.333333 0 0 1 0-30.165333l189.056-189.056a91.605333 91.605333 0 0 0-124.757334-133.973333l-176 175.744a187.861333 187.861333 0 0 0 259.114667 271.957333l335.957333-335.658667a187.861333 187.861333 0 0 0-259.114666-271.957333l-18.133334 17.962667a21.333333 21.333333 0 0 1-30.122666-0.042667l-15.146667-15.146667a21.333333 21.333333 0 0 1 0-30.208l11.562667-11.52a251.861333 251.861333 0 0 1 356.181333 0z" /></svg>