<?xml version="1.0" standalone="no"?><!DOCTYPE svg PUBLIC "-//W3C//DTD SVG 1.1//EN" "http://www.w3.org/Graphics/SVG/1.1/DTD/svg11.dtd"><svg class="icon" width="200px" height="200.00px" viewBox="0 0 1024 1024" version="1.1" xmlns="http://www.w3.org/2000/svg"><path fill="#333333" d="M567.424 117.376a21.333333 21.333333 0 0 1 21.333333-21.333333h21.333334a21.333333 21.333333 0 0 1 21.333333 21.333333v702.933333l244.224-189.098666a21.333333 21.333333 0 0 1 29.952 3.797333l13.056 16.853333a21.333333 21.333333 0 0 1-3.84 29.952l-313.002667 242.346667a21.333333 21.333333 0 0 1-34.389333-16.853333V117.376z m-458.24 224.853333L422.144 99.84a21.333333 21.333333 0 0 1 34.389333 16.853333v789.930667a21.333333 21.333333 0 0 1-21.333333 21.333333h-21.333333a21.333333 21.333333 0 0 1-21.333334-21.333333V203.690667L148.352 392.789333a21.333333 21.333333 0 0 1-29.952-3.797333l-13.056-16.853333a21.333333 21.333333 0 0 1 3.84-29.952z" /></svg>