<?xml version="1.0" standalone="no"?><!DOCTYPE svg PUBLIC "-//W3C//DTD SVG 1.1//EN" "http://www.w3.org/Graphics/SVG/1.1/DTD/svg11.dtd"><svg class="icon" width="200px" height="200.00px" viewBox="0 0 1024 1024" version="1.1" xmlns="http://www.w3.org/2000/svg"><path fill="#333333" d="M522.752 74.581333a21.333333 21.333333 0 0 1 7.68 7.68l146.474667 251.477334 284.416 61.610666a21.333333 21.333333 0 0 1 11.392 35.029334l-193.92 217.002666 29.354666 289.536a21.333333 21.333333 0 0 1-29.866666 21.674667L512 841.258667l-266.282667 117.333333a21.333333 21.333333 0 0 1-29.866666-21.674667l29.354666-289.536-193.92-217.002666a21.333333 21.333333 0 0 1 11.392-35.029334l284.416-61.610666 146.474667-251.477334a21.333333 21.333333 0 0 1 29.184-7.68z m113.066667 315.733334L512 177.792 388.224 390.314667l-240.426667 52.053333 163.882667 183.424-24.789333 244.693333L512 771.328l225.066667 99.157333-24.746667-244.693333 163.84-183.424-240.384-52.053333z" /></svg>