<?xml version="1.0" standalone="no"?><!DOCTYPE svg PUBLIC "-//W3C//DTD SVG 1.1//EN" "http://www.w3.org/Graphics/SVG/1.1/DTD/svg11.dtd"><svg class="icon" width="200px" height="200.00px" viewBox="0 0 1024 1024" version="1.1" xmlns="http://www.w3.org/2000/svg"><path fill="#333333" d="M512 42.666667c259.2 0 469.333333 210.133333 469.333333 469.333333s-210.133333 469.333333-469.333333 469.333333S42.666667 771.2 42.666667 512 252.8 42.666667 512 42.666667zM211.797333 196.693333l-15.061333 15.104a21.333333 21.333333 0 0 0 0 30.165334L782.037333 827.306667a21.333333 21.333333 0 0 0 30.165334 0l15.061333-15.061334a21.333333 21.333333 0 0 0 0-30.165333L241.962667 196.693333a21.333333 21.333333 0 0 0-30.165334 0z" /></svg>