<?xml version="1.0" standalone="no"?><!DOCTYPE svg PUBLIC "-//W3C//DTD SVG 1.1//EN" "http://www.w3.org/Graphics/SVG/1.1/DTD/svg11.dtd"><svg class="icon" width="200px" height="200.00px" viewBox="0 0 1024 1024" version="1.1" xmlns="http://www.w3.org/2000/svg"><path fill="#333333" d="M512 42.666667c259.2 0 469.333333 210.133333 469.333333 469.333333s-210.133333 469.333333-469.333333 469.333333S42.666667 771.2 42.666667 512 252.8 42.666667 512 42.666667zM106.666667 512a405.333333 405.333333 0 0 0 405.333333 405.333333 403.754667 403.754667 0 0 0 263.082667-96.981333L203.648 248.917333A403.754667 403.754667 0 0 0 106.666667 512zM512 106.666667a403.754667 403.754667 0 0 0-263.082667 96.981333l571.434667 571.434667A403.754667 403.754667 0 0 0 917.333333 512 405.333333 405.333333 0 0 0 512 106.666667z" /></svg>