<?xml version="1.0" standalone="no"?><!DOCTYPE svg PUBLIC "-//W3C//DTD SVG 1.1//EN" "http://www.w3.org/Graphics/SVG/1.1/DTD/svg11.dtd"><svg class="icon" width="200px" height="200.00px" viewBox="0 0 1024 1024" version="1.1" xmlns="http://www.w3.org/2000/svg"><path fill="#333333" d="M906.496 569.472a21.333333 21.333333 0 0 1 21.333333 21.333333v21.333334a21.333333 21.333333 0 0 1-21.333333 21.333333H203.562667l189.141333 244.266667a21.333333 21.333333 0 0 1-0.981333 27.306666l-2.816 2.602667-16.896 13.056a21.333333 21.333333 0 0 1-29.909334-3.84l-242.346666-313.002667a21.333333 21.333333 0 0 1 16.853333-34.389333h789.888z m-224.768-458.24l242.346667 313.045333a21.333333 21.333333 0 0 1-16.853334 34.389334H117.290667a21.333333 21.333333 0 0 1-21.333334-21.333334v-21.333333a21.333333 21.333333 0 0 1 21.333334-21.333333h702.933333L631.04 150.4a21.333333 21.333333 0 0 1 1.024-27.306667l2.816-2.602666 16.853333-13.098667a21.333333 21.333333 0 0 1 29.952 3.84z" /></svg>