<?xml version="1.0" standalone="no"?><!DOCTYPE svg PUBLIC "-//W3C//DTD SVG 1.1//EN" "http://www.w3.org/Graphics/SVG/1.1/DTD/svg11.dtd"><svg class="icon" width="200px" height="200.00px" viewBox="0 0 1024 1024" version="1.1" xmlns="http://www.w3.org/2000/svg"><path fill="#333333" d="M512 981.333333c259.2 0 469.333333-210.133333 469.333333-469.333333S771.2 42.666667 512 42.666667 42.666667 252.8 42.666667 512s210.133333 469.333333 469.333333 469.333333z m184.832-317.738666a21.333333 21.333333 0 0 1-26.666667-5.888L512 453.802667l-158.165333 203.946666-2.602667 2.816a21.333333 21.333333 0 0 1-27.306667 0.938667l-16.853333-13.056a21.333333 21.333333 0 0 1-3.797333-29.952L495.146667 371.2a21.333333 21.333333 0 0 1 33.706666 0l191.872 247.338667a21.333333 21.333333 0 0 1-3.797333 29.952l-16.853333 13.056z" /></svg>