<?xml version="1.0" standalone="no"?><!DOCTYPE svg PUBLIC "-//W3C//DTD SVG 1.1//EN" "http://www.w3.org/Graphics/SVG/1.1/DTD/svg11.dtd"><svg class="icon" width="200px" height="200.00px" viewBox="0 0 1024 1024" version="1.1" xmlns="http://www.w3.org/2000/svg"><path fill="#333333" d="M906.666667 96a21.333333 21.333333 0 0 1 21.333333 21.333333v789.333334a21.333333 21.333333 0 0 1-21.333333 21.333333H117.333333a21.333333 21.333333 0 0 1-21.333333-21.333333V117.333333a21.333333 21.333333 0 0 1 21.333333-21.333333h789.333334z m-42.666667 64H160v704h704V160z m-365.056 207.36a21.333333 21.333333 0 0 1 27.306667 0.981333l2.602666 2.816 191.872 247.338667a21.333333 21.333333 0 0 1-0.981333 27.306667l-2.816 2.645333-16.853333 13.056-3.242667 2.090667a21.333333 21.333333 0 0 1-24.064-3.029334l-2.602667-2.858666L512 453.802667l-158.165333 203.946666-2.602667 2.816a21.333333 21.333333 0 0 1-24.064 2.986667l-3.242667-2.048-16.853333-13.056a21.333333 21.333333 0 0 1-5.845333-26.709333l2.048-3.242667L495.146667 371.2a21.333333 21.333333 0 0 1 3.797333-3.797333z" /></svg>