<?xml version="1.0" standalone="no"?><!DOCTYPE svg PUBLIC "-//W3C//DTD SVG 1.1//EN" "http://www.w3.org/Graphics/SVG/1.1/DTD/svg11.dtd"><svg class="icon" width="200px" height="200.00px" viewBox="0 0 1024 1024" version="1.1" xmlns="http://www.w3.org/2000/svg"><path fill="#333333" d="M512 95.573333a234.666667 234.666667 0 0 1 133.930667 427.434667 416.256 416.256 0 0 1 280.576 360.533333l0.853333 14.08 0.128 8.149334a21.333333 21.333333 0 0 1-17.194667 21.248l-4.138666 0.426666h-21.248a21.333333 21.333333 0 0 1-21.333334-21.034666l-0.256-9.130667-0.085333-1.962667c-10.88-180.778667-158.293333-324.778667-340.053333-330.24l-9.898667-0.170666H511.146667l-8.96 0.170666a351.872 351.872 0 0 0-340.565334 319.402667l-0.853333 11.818667-0.213333 10.069333a21.333333 21.333333 0 0 1-21.333334 20.992h-21.461333a21.333333 21.333333 0 0 1-20.949333-17.493333l-0.341334-4.138667 0.256-10.325333c8.789333-173.141333 123.562667-318.72 281.429334-372.394667A234.666667 234.666667 0 0 1 512 95.616z m1.066667 405.333334H512a170.666667 170.666667 0 1 0-1.066667 0h2.133334z" /></svg>