<?xml version="1.0" standalone="no"?><!DOCTYPE svg PUBLIC "-//W3C//DTD SVG 1.1//EN" "http://www.w3.org/Graphics/SVG/1.1/DTD/svg11.dtd"><svg class="icon" width="200px" height="200.00px" viewBox="0 0 1024 1024" version="1.1" xmlns="http://www.w3.org/2000/svg"><path fill="#333333" d="M906.581333 863.36a21.333333 21.333333 0 0 1 21.333334 21.333333v21.333334a21.333333 21.333333 0 0 1-21.333334 21.333333h-341.546666a21.333333 21.333333 0 0 1-21.333334-21.333333v-21.333334a21.333333 21.333333 0 0 1 21.333334-21.333333h341.546666zM512 95.573333a234.666667 234.666667 0 0 1 9.429333 469.12l-19.285333 0.341334a351.872 351.872 0 0 0-340.565333 319.402666l-0.853334 11.818667-0.213333 10.069333a21.333333 21.333333 0 0 1-21.333333 20.992h-21.461334a21.333333 21.333333 0 0 1-20.949333-17.493333l-0.341333-4.138667 0.256-10.325333c8.789333-173.141333 123.562667-318.72 281.429333-372.394667A234.666667 234.666667 0 0 1 512 95.616z m394.581333 634.709334a21.333333 21.333333 0 0 1 21.333334 21.333333v21.333333a21.333333 21.333333 0 0 1-21.333334 21.333334h-341.546666a21.333333 21.333333 0 0 1-21.333334-21.333334v-21.333333a21.333333 21.333333 0 0 1 21.333334-21.333333h341.546666z m0-132.992a21.333333 21.333333 0 0 1 21.333334 21.333333v21.333333a21.333333 21.333333 0 0 1-21.333334 21.333334h-213.76a21.333333 21.333333 0 0 1-21.333333-21.333334v-21.333333a21.333333 21.333333 0 0 1 21.333333-21.333333h213.76zM512 159.573333a170.666667 170.666667 0 0 0-9.557333 341.077334l9.557333 0.298666a170.666667 170.666667 0 1 0 0-341.333333z" /></svg>