<?xml version="1.0" standalone="no"?><!DOCTYPE svg PUBLIC "-//W3C//DTD SVG 1.1//EN" "http://www.w3.org/Graphics/SVG/1.1/DTD/svg11.dtd"><svg class="icon" width="200px" height="200.00px" viewBox="0 0 1024 1024" version="1.1" xmlns="http://www.w3.org/2000/svg"><path fill="#333333" d="M733.226667 117.589333a21.333333 21.333333 0 0 1 21.333333-21.333333h21.333333a21.333333 21.333333 0 0 1 21.333334 21.333333v788.821334a21.333333 21.333333 0 0 1-21.333334 21.333333h-21.333333a21.333333 21.333333 0 0 1-21.333333-21.333333V117.589333zM231.125333 183.637333l12.928-16.981333a21.333333 21.333333 0 0 1 29.866667-4.053333l436.992 332.586666a21.333333 21.333333 0 0 1 0 33.92L273.962667 861.696a21.333333 21.333333 0 0 1-29.866667-4.053333l-12.970667-16.981334a21.333333 21.333333 0 0 1 1.237334-27.306666l2.816-2.56 392.362666-298.666667-392.362666-298.581333a21.333333 21.333333 0 0 1-4.053334-29.866667z" /></svg>