<?xml version="1.0" standalone="no"?><!DOCTYPE svg PUBLIC "-//W3C//DTD SVG 1.1//EN" "http://www.w3.org/Graphics/SVG/1.1/DTD/svg11.dtd"><svg class="icon" width="200px" height="200.00px" viewBox="0 0 1024 1024" version="1.1" xmlns="http://www.w3.org/2000/svg"><path fill="#333333" d="M290.773333 906.410667a21.333333 21.333333 0 0 1-21.333333 21.333333h-21.333333a21.333333 21.333333 0 0 1-21.333334-21.333333V117.589333a21.333333 21.333333 0 0 1 21.333334-21.333333h21.333333a21.333333 21.333333 0 0 1 21.333333 21.333333v788.821334z m502.101334-66.048l-12.928 16.981333a21.333333 21.333333 0 0 1-29.866667 4.053333L313.045333 528.810667a21.333333 21.333333 0 0 1 0-33.92l436.949334-332.586667a21.333333 21.333333 0 0 1 29.866666 4.053333l12.970667 16.981334a21.333333 21.333333 0 0 1-1.237333 27.306666l-2.816 2.56-392.362667 298.666667 392.362667 298.581333a21.333333 21.333333 0 0 1 4.053333 29.866667z" /></svg>