<?xml version="1.0" encoding="UTF-8"?>
<svg width="88px" height="56px" viewBox="0 0 88 56" version="1.1" xmlns="http://www.w3.org/2000/svg" xmlns:xlink="http://www.w3.org/1999/xlink">
    <title>empty-status</title>
    <g id="Empty-空状态" stroke="none" stroke-width="1" fill="none" fill-rule="evenodd">
        <g transform="translate(-246.000000, -336.000000)" id="编组-2">
            <g transform="translate(50.000000, 276.000000)">
                <g id="empty-status" transform="translate(196.000000, 60.000000)">
                    <rect id="矩形" fill="#000000" fill-rule="nonzero" opacity="0" x="12.0006949" y="0" width="63.9918042" height="48"></rect>
                    <ellipse id="椭圆形" fill="#F7F7F8" cx="44" cy="46" rx="44" ry="10"></ellipse>
                    <path d="M68.8491949,48 L18.9425978,48 C15.1138891,48 12.0506189,45.2205 12.0506189,41.937 L12.0506189,19.5795 C11.9232985,17.3055 11.9232985,15.159 13.4541757,13.7685 L26.856172,0 L61.1917774,0 L74.5937737,13.7685 C76.1261667,15.1575 75.9973305,17.685 75.9973305,20.463 L75.9973305,41.811 C75.7426895,45.222 72.5505832,48 68.8491949,48 Z" id="路径" fill="#B7B7BC" fill-rule="nonzero"></path>
                    <path d="M14.7288962,19.5795 L14.7288962,41.937 C14.7288962,43.7055 16.6432506,45.2205 18.9410821,45.2205 L68.8476792,45.2205 C71.1455107,45.2205 73.0598651,43.704 73.0598651,41.937 L73.0598651,19.326 L56.3384419,19.326 L56.3384419,22.3575 C56.3384419,23.874 54.9348852,25.137 53.4024923,25.137 L34.7667147,25.137 C33.1070013,25.137 31.8307651,23.874 31.8307651,22.3575 L31.8307651,19.326 L14.9820214,19.326 L14.9820214,19.578 L14.7288962,19.5795 Z" id="路径" fill="#FFFFFF" fill-rule="nonzero"></path>
                    <path d="M34.1301123,22.4835 C34.1301123,22.4835 34.2574328,22.6095 34.5135895,22.6095 L53.149367,22.6095 C53.2766875,22.6095 53.404008,22.4835 53.5328442,22.4835 L53.5328442,16.8 L72.9340603,16.8 C72.8067398,16.4205 72.8067398,16.1685 72.5505832,15.789 L60.0413459,2.778 L27.8762516,2.778 L15.3670143,15.789 C15.1123734,15.915 14.9835372,16.2945 14.9835372,16.8 L34.3847533,16.8 L34.3847533,22.4835 L34.1301123,22.4835 L34.1301123,22.4835 Z" id="路径" fill="#FFFFFF" fill-rule="nonzero"></path>
                </g>
            </g>
        </g>
    </g>
</svg>