<?xml version="1.0" encoding="UTF-8"?>
<svg width="22px" height="22px" viewBox="0 0 22 22" version="1.1" xmlns="http://www.w3.org/2000/svg" xmlns:xlink="http://www.w3.org/1999/xlink">
    <title>star备份 5</title>
    <g id="Rate-评分" stroke="none" stroke-width="1" fill="none" fill-rule="evenodd">
        <g transform="translate(-216.000000, -1026.000000)" id="编组备份-23">
            <g transform="translate(112.000000, 1026.000000)">
                <g id="star备份-5" transform="translate(104.000000, 0.000000)">
                    <rect id="矩形" opacity="0" x="0" y="0" width="22" height="22"></rect>
                    <path d="M11.1951508,3.05225201 C11.2525481,3.0856829 11.3002937,3.13342855 11.3337246,3.19082584 L13.970542,7.71796118 L19.090925,8.82676181 C19.298231,8.87165319 19.4298941,9.07609955 19.3850027,9.28340555 C19.3709448,9.34832433 19.3402902,9.40848736 19.2960328,9.45801876 L15.8052927,13.3647429 L16.3330459,18.5771547 C16.3544128,18.7881866 16.2006589,18.9765831 15.9896269,18.9979499 C15.9235414,19.004641 15.8568501,18.9940782 15.7960667,18.967293 L11.0018532,16.8546459 L6.20763972,18.967293 C6.01353915,19.0528265 5.78685094,18.9648155 5.70131741,18.770715 C5.67453221,18.7099315 5.66396936,18.6432403 5.67066048,18.5771547 L6.19841376,13.3647429 L2.70767359,9.45801876 C2.566346,9.29984947 2.5799989,9.05705928 2.73816819,8.91573169 C2.7876996,8.87147434 2.84786263,8.84081974 2.91278141,8.82676181 L8.03316437,7.71796118 L10.6699818,3.19082584 C10.7767371,3.00753831 11.0118633,2.9454967 11.1951508,3.05225201 Z" id="路径" fill="#CFD0D3" fill-rule="nonzero"></path>
                </g>
            </g>
        </g>
    </g>
</svg>